<svg aria-hidden="true" style="position: absolute; width: 0; height: 0; overflow: hidden;" version="1.1" xmlns="http://www.w3.org/2000/svg" xmlns:xlink="http://www.w3.org/1999/xlink">
<defs>
<symbol id="icon-hero" viewBox="0 0 11 32">
<path fill="#eeb840" style="fill: var(--color1, #eeb840)" d="M10.709 26.677c0 2.94-2.383 5.323-5.323 5.323s-5.323-2.383-5.323-5.323c0-2.94 2.383-5.323 5.323-5.323s5.323 2.383 5.323 5.323z"></path>
<path fill="#a8dadb" style="fill: var(--color2, #a8dadb)" d="M10.709 5.323c0 1.412-0.561 2.765-1.559 3.764s-2.352 1.559-3.764 1.559c-1.412 0-2.765-0.561-3.764-1.559s-1.559-2.352-1.559-3.764h2.661c0 0.706 0.28 1.383 0.78 1.882s1.176 0.779 1.882 0.779c0.706 0 1.383-0.28 1.882-0.779s0.779-1.176 0.779-1.882h2.661z"></path>
<path fill="#6384ee" style="fill: var(--color3, #6384ee)" d="M10.663 16.020l-5.331 5.331-5.331-5.331 5.331-5.331 5.331 5.331z"></path>
</symbol>
<symbol id="first-section-icon-1" viewBox="0 0 51 32">
<path fill="#01013c" style="fill: var(--color1, #01013c)" d="M0 0.064h31.679c4.957 0 8.975 4.018 8.975 8.975v6.188c0 1.539-1.248 2.787-2.787 2.787h-37.867v-17.95z"></path>
<path fill="#a8dadb" style="fill: var(--color2, #a8dadb)" d="M40.654 12.779c0 2.953-2.394 5.348-5.348 5.348s-5.348-2.394-5.348-5.348c0-2.953 2.394-5.348 5.348-5.348s5.348 2.394 5.348 5.348z"></path>
<path fill="#a8dadb" style="fill: var(--color2, #a8dadb)" d="M46.001 7.431c-1.418 0-2.778 0.563-3.781 1.566s-1.566 2.363-1.566 3.781 0.563 2.778 1.566 3.781c1.003 1.003 2.363 1.566 3.781 1.566v-2.556c-0.74 0-1.451-0.294-1.974-0.818s-0.818-1.234-0.818-1.974c0-0.74 0.294-1.45 0.818-1.974s1.234-0.818 1.974-0.818v-2.556z"></path>
<path fill="#a8dadb" style="fill: var(--color2, #a8dadb)" d="M3.535 12.758h19.115v19.115h-19.115v-19.115z"></path>
<path fill="#01013c" style="fill: var(--color1, #01013c)" d="M11.871 24.517c-0.31 0-0.572-0.053-0.786-0.161-0.21-0.107-0.38-0.256-0.51-0.447s-0.224-0.411-0.281-0.66c-0.057-0.248-0.086-0.512-0.086-0.791 0-0.291 0.031-0.562 0.092-0.814 0.061-0.256 0.159-0.48 0.292-0.671s0.308-0.34 0.522-0.447c0.214-0.111 0.472-0.166 0.774-0.166 0.306 0 0.564 0.055 0.774 0.166 0.214 0.107 0.386 0.258 0.516 0.453 0.134 0.191 0.229 0.413 0.287 0.665 0.061 0.248 0.092 0.514 0.092 0.797 0 0.287-0.031 0.556-0.092 0.809-0.061 0.249-0.159 0.468-0.292 0.66-0.13 0.191-0.302 0.34-0.516 0.447s-0.476 0.161-0.786 0.161zM11.871 23.56c0.157 0 0.279-0.040 0.367-0.121 0.092-0.080 0.157-0.18 0.195-0.298 0.042-0.122 0.069-0.247 0.080-0.373s0.017-0.235 0.017-0.327c0-0.088-0.006-0.193-0.017-0.315-0.008-0.126-0.031-0.249-0.069-0.367s-0.101-0.218-0.189-0.298c-0.084-0.080-0.205-0.12-0.361-0.12-0.153 0-0.275 0.040-0.367 0.12-0.088 0.076-0.153 0.174-0.195 0.292s-0.071 0.241-0.086 0.367c-0.011 0.122-0.017 0.229-0.017 0.321 0 0.088 0.004 0.195 0.011 0.321 0.011 0.126 0.036 0.25 0.075 0.373s0.101 0.224 0.189 0.304c0.088 0.080 0.21 0.121 0.367 0.121zM14.568 24.472v-2.793h-0.774v-0.803c0.161 0 0.306-0.013 0.436-0.040s0.247-0.075 0.35-0.143 0.193-0.162 0.27-0.281h0.757v4.060h-1.038z"></path>
</symbol>
<symbol id="first-section-icon-2" viewBox="0 0 46 32">
<path fill="#a8dadb" style="fill: var(--color2, #a8dadb)" d="M16.432 0h29.62v29.62h-29.62v-29.62z"></path>
<path fill="#01013c" style="fill: var(--color1, #01013c)" d="M28.851 17.945c-0.48 0-0.886-0.083-1.217-0.249-0.326-0.166-0.589-0.397-0.791-0.693s-0.347-0.637-0.435-1.022c-0.089-0.385-0.133-0.794-0.133-1.226 0-0.45 0.047-0.871 0.142-1.262 0.095-0.397 0.246-0.743 0.453-1.040s0.477-0.527 0.809-0.693c0.332-0.172 0.732-0.258 1.2-0.258 0.474 0 0.874 0.086 1.2 0.258 0.332 0.166 0.598 0.4 0.8 0.702 0.207 0.296 0.355 0.64 0.444 1.031 0.095 0.385 0.142 0.797 0.142 1.235 0 0.444-0.047 0.862-0.142 1.253-0.095 0.385-0.246 0.726-0.453 1.022-0.201 0.296-0.468 0.527-0.8 0.693s-0.738 0.249-1.217 0.249zM28.851 16.461c0.243 0 0.432-0.062 0.569-0.187 0.142-0.124 0.243-0.278 0.302-0.462 0.065-0.19 0.106-0.382 0.124-0.578s0.027-0.364 0.027-0.506c0-0.136-0.009-0.299-0.027-0.489-0.012-0.196-0.047-0.385-0.107-0.569s-0.157-0.338-0.293-0.462c-0.13-0.124-0.317-0.187-0.56-0.187-0.237 0-0.427 0.062-0.569 0.187-0.136 0.118-0.237 0.27-0.302 0.453s-0.11 0.373-0.133 0.569c-0.018 0.19-0.027 0.355-0.027 0.498 0 0.136 0.006 0.302 0.018 0.498 0.018 0.196 0.056 0.388 0.116 0.578s0.157 0.347 0.293 0.471c0.136 0.124 0.326 0.187 0.569 0.187zM31.788 17.874v-1.315l1.715-1.386c0.107-0.089 0.231-0.19 0.373-0.302s0.279-0.234 0.409-0.364c0.136-0.136 0.249-0.273 0.338-0.409 0.089-0.142 0.133-0.284 0.133-0.427 0-0.178-0.056-0.329-0.169-0.453-0.113-0.13-0.296-0.196-0.551-0.196-0.272 0-0.471 0.065-0.595 0.196-0.118 0.124-0.187 0.273-0.204 0.444h-1.493c0.018-0.492 0.136-0.895 0.355-1.208 0.225-0.32 0.513-0.557 0.862-0.711 0.355-0.16 0.732-0.24 1.129-0.24 0.403 0 0.773 0.077 1.111 0.231 0.344 0.148 0.619 0.37 0.826 0.666 0.208 0.29 0.311 0.649 0.311 1.075 0 0.332-0.065 0.643-0.195 0.933-0.125 0.284-0.302 0.554-0.533 0.809-0.231 0.249-0.498 0.489-0.8 0.72l-0.604 0.453h2.071v1.484h-4.488z"></path>
<path fill="#a8dadb" style="fill: var(--color2, #a8dadb)" d="M16.573 23.566c0-2.198-0.873-4.305-2.427-5.859s-3.662-2.427-5.859-2.427c-2.198 0-4.305 0.873-5.859 2.427s-2.427 3.662-2.427 5.859h3.96c0-1.147 0.456-2.248 1.267-3.059s1.912-1.267 3.059-1.267c1.147 0 2.248 0.456 3.059 1.267s1.267 1.912 1.267 3.059h3.96z"></path>
</symbol>
<symbol id="first-section-icon-3" viewBox="0 0 52 32">
<path fill="#01013c" style="fill: var(--color1, #01013c)" d="M0 0h31.864c4.986 0 9.028 4.042 9.028 9.028v2.482c0 3.615-2.931 6.546-6.546 6.546h-34.346v-18.055z"></path>
<path fill="#a8dadb" style="fill: var(--color2, #a8dadb)" d="M40.892 12.789c0 2.971-2.408 5.379-5.379 5.379s-5.379-2.408-5.379-5.379c0-2.971 2.408-5.379 5.379-5.379s5.379 2.408 5.379 5.379z"></path>
<path fill="#a8dadb" style="fill: var(--color2, #a8dadb)" d="M46.27 7.41c-1.427 0-2.795 0.567-3.803 1.575s-1.575 2.377-1.575 3.803 0.567 2.795 1.575 3.803c1.009 1.009 2.377 1.575 3.803 1.575v-2.571c-0.745 0-1.459-0.296-1.986-0.822s-0.822-1.241-0.822-1.986c0-0.745 0.296-1.459 0.822-1.986s1.241-0.822 1.986-0.822v-2.571z"></path>
<path fill="#a8dadb" style="fill: var(--color2, #a8dadb)" d="M3.556 12.725h19.227v19.227h-19.227v-19.227z"></path>
<path fill="#01013c" style="fill: var(--color1, #01013c)" d="M11.243 24.374c-0.312 0-0.575-0.054-0.79-0.162-0.211-0.108-0.383-0.258-0.513-0.45s-0.225-0.413-0.283-0.663-0.086-0.515-0.086-0.796c0-0.292 0.031-0.565 0.092-0.819 0.062-0.258 0.16-0.482 0.294-0.675s0.31-0.342 0.525-0.45c0.215-0.112 0.475-0.167 0.779-0.167 0.308 0 0.567 0.056 0.779 0.167 0.215 0.108 0.388 0.26 0.519 0.456 0.135 0.192 0.231 0.415 0.288 0.669 0.062 0.25 0.092 0.517 0.092 0.802 0 0.288-0.031 0.56-0.092 0.813-0.062 0.25-0.16 0.471-0.294 0.663-0.131 0.192-0.304 0.342-0.519 0.45s-0.479 0.162-0.79 0.162zM11.243 23.411c0.158 0 0.281-0.040 0.369-0.121 0.092-0.081 0.158-0.181 0.196-0.3 0.042-0.123 0.069-0.248 0.081-0.375s0.017-0.237 0.017-0.329c0-0.088-0.006-0.194-0.017-0.317-0.008-0.127-0.031-0.25-0.069-0.369s-0.102-0.219-0.19-0.3c-0.085-0.081-0.206-0.121-0.363-0.121-0.154 0-0.277 0.040-0.369 0.121-0.088 0.077-0.154 0.175-0.196 0.294s-0.071 0.242-0.087 0.369c-0.012 0.123-0.017 0.231-0.017 0.323 0 0.088 0.004 0.196 0.012 0.323 0.012 0.127 0.037 0.252 0.075 0.375s0.102 0.225 0.19 0.306c0.088 0.081 0.211 0.121 0.369 0.121zM14.93 24.368c-0.215 0-0.421-0.027-0.617-0.081-0.192-0.058-0.367-0.144-0.525-0.26-0.154-0.119-0.281-0.267-0.381-0.444-0.1-0.181-0.162-0.394-0.185-0.64h1.015c0.015 0.096 0.054 0.179 0.115 0.248 0.062 0.066 0.142 0.115 0.242 0.15s0.213 0.052 0.34 0.052c0.085 0 0.16-0.008 0.225-0.023 0.069-0.015 0.127-0.039 0.173-0.069s0.081-0.067 0.104-0.11c0.023-0.046 0.035-0.1 0.035-0.162 0-0.050-0.010-0.094-0.029-0.133-0.015-0.042-0.040-0.079-0.075-0.109-0.031-0.031-0.073-0.054-0.127-0.069-0.050-0.019-0.11-0.029-0.179-0.029h-0.531v-0.871h0.375c0.077 0 0.142-0.010 0.196-0.029s0.096-0.044 0.127-0.075c0.035-0.031 0.060-0.065 0.075-0.104 0.015-0.042 0.023-0.085 0.023-0.127 0-0.065-0.015-0.121-0.046-0.167-0.031-0.050-0.079-0.088-0.144-0.115-0.065-0.031-0.148-0.046-0.248-0.046-0.108 0-0.202 0.017-0.283 0.052-0.081 0.031-0.144 0.075-0.19 0.133-0.046 0.054-0.073 0.115-0.081 0.184h-1.004c0.023-0.231 0.081-0.429 0.173-0.594 0.092-0.169 0.211-0.308 0.358-0.415 0.146-0.112 0.311-0.192 0.496-0.242 0.185-0.054 0.379-0.081 0.583-0.081 0.177 0 0.35 0.021 0.519 0.063 0.169 0.039 0.321 0.104 0.456 0.196 0.138 0.088 0.248 0.206 0.329 0.352 0.085 0.146 0.127 0.323 0.127 0.531 0 0.108-0.019 0.211-0.058 0.312-0.035 0.1-0.085 0.19-0.15 0.271-0.062 0.077-0.131 0.14-0.208 0.19 0.131 0.054 0.236 0.131 0.317 0.231 0.085 0.096 0.146 0.21 0.185 0.34 0.042 0.127 0.063 0.261 0.063 0.404 0 0.234-0.044 0.435-0.133 0.6s-0.21 0.298-0.363 0.398c-0.15 0.1-0.319 0.173-0.508 0.219s-0.385 0.069-0.588 0.069z"></path>
</symbol>
<symbol id="first-section-icon-4" viewBox="0 0 46 32">
<path fill="#a8dadb" style="fill: var(--color2, #a8dadb)" d="M16.432 0h29.62v29.62h-29.62v-29.62z"></path>
<path fill="#01013c" style="fill: var(--color1, #01013c)" d="M28.852 17.945c-0.48 0-0.886-0.083-1.217-0.249-0.326-0.166-0.589-0.397-0.791-0.693s-0.347-0.637-0.435-1.022c-0.089-0.385-0.133-0.794-0.133-1.226 0-0.45 0.047-0.871 0.142-1.262 0.095-0.397 0.246-0.743 0.453-1.040s0.477-0.527 0.809-0.693c0.332-0.172 0.732-0.258 1.2-0.258 0.474 0 0.874 0.086 1.2 0.258 0.332 0.166 0.599 0.4 0.8 0.702 0.207 0.296 0.355 0.64 0.444 1.031 0.095 0.385 0.142 0.797 0.142 1.235 0 0.444-0.047 0.862-0.142 1.253-0.095 0.385-0.246 0.726-0.453 1.022-0.201 0.296-0.468 0.527-0.8 0.693s-0.738 0.249-1.217 0.249zM28.852 16.461c0.243 0 0.432-0.062 0.569-0.187 0.142-0.124 0.243-0.278 0.302-0.462 0.065-0.19 0.106-0.382 0.124-0.578s0.027-0.364 0.027-0.506c0-0.136-0.009-0.299-0.027-0.489-0.012-0.196-0.047-0.385-0.107-0.569s-0.157-0.338-0.293-0.462c-0.13-0.124-0.317-0.187-0.56-0.187-0.237 0-0.427 0.062-0.569 0.187-0.136 0.118-0.237 0.27-0.302 0.453s-0.11 0.373-0.133 0.569c-0.018 0.19-0.027 0.355-0.027 0.498 0 0.136 0.006 0.302 0.018 0.498 0.018 0.196 0.056 0.388 0.116 0.578s0.157 0.347 0.293 0.471c0.136 0.124 0.326 0.187 0.569 0.187zM35.029 17.874v-1.093h-3.048v-1.226l2.817-3.972h1.822v3.741h0.693v1.457h-0.693v1.093h-1.591zM33.785 15.324h1.244v-1.875l-1.244 1.875z"></path>
<path fill="#a8dadb" style="fill: var(--color2, #a8dadb)" d="M16.573 23.566c0-2.198-0.873-4.305-2.427-5.859s-3.662-2.427-5.859-2.427c-2.198 0-4.305 0.873-5.859 2.427s-2.427 3.662-2.427 5.859h3.96c0-1.147 0.456-2.248 1.267-3.059s1.912-1.267 3.059-1.267c1.147 0 2.248 0.456 3.059 1.267s1.267 1.912 1.267 3.059h3.96z"></path>
</symbol>
<symbol id="first-section-icon-5" viewBox="0 0 52 32">
<path fill="#01013c" style="fill: var(--color1, #01013c)" d="M0 0h32.241c5.045 0 9.134 4.090 9.134 9.134v2.511c0 3.658-2.965 6.623-6.623 6.623h-34.752v-18.269z"></path>
<path fill="#a8dadb" style="fill: var(--color2, #a8dadb)" d="M41.375 12.562c0 3.006-2.437 5.442-5.442 5.442s-5.442-2.437-5.442-5.442c0-3.006 2.437-5.442 5.442-5.442s5.442 2.437 5.442 5.442z"></path>
<path fill="#a8dadb" style="fill: var(--color2, #a8dadb)" d="M46.818 7.119c-1.443 0-2.828 0.573-3.849 1.594s-1.594 2.405-1.594 3.848 0.573 2.828 1.594 3.848c1.021 1.021 2.405 1.594 3.849 1.594v-2.601c-0.754 0-1.476-0.299-2.009-0.832s-0.832-1.256-0.832-2.009c0-0.754 0.299-1.476 0.832-2.009s1.256-0.832 2.009-0.832v-2.601z"></path>
<path fill="#a8dadb" style="fill: var(--color2, #a8dadb)" d="M3.598 12.497h19.455v19.455h-19.455v-19.455z"></path>
<path fill="#01013c" style="fill: var(--color1, #01013c)" d="M11.376 24.283c-0.315 0-0.582-0.055-0.8-0.163-0.214-0.109-0.387-0.261-0.519-0.455s-0.228-0.418-0.286-0.671-0.088-0.521-0.088-0.805c0-0.296 0.031-0.572 0.093-0.829 0.062-0.261 0.161-0.488 0.298-0.683s0.313-0.346 0.531-0.455c0.218-0.113 0.481-0.169 0.788-0.169 0.311 0 0.574 0.056 0.788 0.169 0.218 0.109 0.393 0.263 0.525 0.461 0.136 0.194 0.233 0.42 0.292 0.677 0.062 0.253 0.093 0.523 0.093 0.811 0 0.292-0.031 0.566-0.093 0.823-0.062 0.253-0.161 0.477-0.298 0.671-0.132 0.194-0.307 0.346-0.525 0.455s-0.484 0.163-0.8 0.163zM11.376 23.309c0.16 0 0.284-0.041 0.374-0.122 0.093-0.082 0.16-0.183 0.198-0.304 0.043-0.124 0.070-0.251 0.082-0.379s0.018-0.239 0.018-0.333c0-0.090-0.006-0.197-0.018-0.321-0.008-0.128-0.031-0.253-0.070-0.373s-0.103-0.222-0.193-0.304c-0.086-0.082-0.208-0.122-0.368-0.122-0.156 0-0.28 0.041-0.374 0.122-0.089 0.078-0.156 0.177-0.198 0.298s-0.072 0.245-0.088 0.374c-0.012 0.124-0.018 0.233-0.018 0.327 0 0.089 0.004 0.198 0.012 0.327 0.012 0.128 0.037 0.255 0.076 0.379s0.103 0.228 0.193 0.309 0.214 0.122 0.374 0.122zM15.078 24.278c-0.206 0-0.397-0.027-0.572-0.082-0.171-0.054-0.325-0.138-0.461-0.251-0.132-0.117-0.241-0.263-0.327-0.438-0.086-0.179-0.142-0.389-0.169-0.63h1.027c0.012 0.055 0.037 0.115 0.076 0.181 0.043 0.066 0.103 0.122 0.181 0.169 0.082 0.043 0.185 0.064 0.309 0.064 0.121 0 0.214-0.023 0.28-0.070 0.070-0.047 0.121-0.105 0.152-0.175s0.047-0.142 0.047-0.216c0-0.136-0.045-0.251-0.134-0.344-0.089-0.097-0.228-0.146-0.414-0.146-0.105 0-0.204 0.017-0.298 0.052s-0.187 0.084-0.28 0.146h-0.835v-2.434h2.883v0.963h-1.879v0.531c0.128-0.078 0.268-0.127 0.42-0.146 0.156-0.023 0.288-0.031 0.397-0.023 0.268 0.012 0.492 0.074 0.671 0.187 0.179 0.109 0.313 0.261 0.403 0.455 0.090 0.191 0.134 0.414 0.134 0.671 0 0.335-0.072 0.617-0.216 0.846-0.14 0.23-0.333 0.403-0.578 0.519-0.241 0.113-0.514 0.169-0.817 0.169z"></path>
</symbol>
<symbol id="first-section-icon-6" viewBox="0 0 46 32">
<path fill="#a8dadb" style="fill: var(--color2, #a8dadb)" d="M16.432 0h29.62v29.62h-29.62v-29.62z"></path>
<path fill="#01013c" style="fill: var(--color1, #01013c)" d="M28.852 17.945c-0.48 0-0.886-0.083-1.217-0.249-0.326-0.166-0.589-0.397-0.791-0.693s-0.347-0.637-0.435-1.022c-0.089-0.385-0.133-0.794-0.133-1.226 0-0.45 0.047-0.871 0.142-1.262 0.095-0.397 0.246-0.743 0.453-1.040s0.477-0.527 0.809-0.693c0.332-0.172 0.732-0.258 1.2-0.258 0.474 0 0.874 0.086 1.2 0.258 0.332 0.166 0.599 0.4 0.8 0.702 0.207 0.296 0.355 0.64 0.444 1.031 0.095 0.385 0.142 0.797 0.142 1.235 0 0.444-0.047 0.862-0.142 1.253-0.095 0.385-0.246 0.726-0.453 1.022-0.201 0.296-0.468 0.527-0.8 0.693s-0.738 0.249-1.217 0.249zM28.852 16.461c0.243 0 0.432-0.062 0.569-0.187 0.142-0.124 0.243-0.278 0.302-0.462 0.065-0.19 0.106-0.382 0.124-0.578s0.027-0.364 0.027-0.507c0-0.136-0.009-0.299-0.027-0.489-0.012-0.196-0.047-0.385-0.107-0.569s-0.157-0.338-0.293-0.462c-0.13-0.124-0.317-0.187-0.56-0.187-0.237 0-0.427 0.062-0.569 0.187-0.136 0.118-0.237 0.27-0.302 0.453s-0.11 0.373-0.133 0.569c-0.018 0.19-0.027 0.355-0.027 0.498 0 0.136 0.006 0.302 0.018 0.498 0.018 0.196 0.056 0.388 0.116 0.578s0.157 0.347 0.293 0.471c0.136 0.124 0.326 0.187 0.569 0.187zM34.674 17.945c-0.456 0-0.847-0.083-1.173-0.249-0.32-0.172-0.584-0.403-0.791-0.693-0.201-0.296-0.349-0.634-0.444-1.013s-0.142-0.776-0.142-1.191c0-0.438 0.053-0.853 0.16-1.244 0.107-0.397 0.27-0.749 0.489-1.057 0.225-0.308 0.507-0.551 0.844-0.729s0.738-0.267 1.2-0.267c0.391 0 0.743 0.071 1.057 0.213 0.32 0.136 0.581 0.347 0.782 0.631s0.32 0.652 0.355 1.102h-1.466c-0.047-0.142-0.139-0.258-0.276-0.347-0.136-0.095-0.311-0.142-0.524-0.142-0.166 0-0.314 0.030-0.444 0.089-0.125 0.053-0.234 0.127-0.329 0.222s-0.175 0.204-0.24 0.329c-0.059 0.124-0.104 0.255-0.133 0.391-0.030 0.13-0.045 0.264-0.045 0.4 0.148-0.196 0.317-0.341 0.507-0.435 0.19-0.101 0.37-0.166 0.542-0.196 0.178-0.036 0.32-0.053 0.426-0.053 0.427 0 0.788 0.083 1.084 0.249 0.296 0.16 0.521 0.391 0.675 0.693 0.16 0.296 0.24 0.655 0.24 1.075 0 0.456-0.101 0.85-0.302 1.182s-0.48 0.589-0.835 0.773c-0.349 0.178-0.755 0.267-1.217 0.267zM34.692 16.479c0.178-0.006 0.32-0.041 0.426-0.107 0.107-0.071 0.184-0.16 0.231-0.267 0.053-0.113 0.080-0.228 0.080-0.347 0-0.124-0.027-0.24-0.080-0.347s-0.133-0.193-0.24-0.258c-0.107-0.071-0.243-0.107-0.409-0.107s-0.311 0.036-0.436 0.107c-0.118 0.065-0.21 0.154-0.275 0.267-0.059 0.107-0.089 0.222-0.089 0.347 0 0.113 0.029 0.225 0.089 0.338 0.059 0.107 0.145 0.195 0.258 0.267 0.118 0.071 0.266 0.107 0.444 0.107z"></path>
<path fill="#a8dadb" style="fill: var(--color2, #a8dadb)" d="M16.573 23.566c0-2.198-0.873-4.305-2.427-5.859s-3.662-2.427-5.859-2.427c-2.198 0-4.305 0.873-5.859 2.427s-2.427 3.662-2.427 5.859h3.96c0-1.147 0.456-2.248 1.267-3.059s1.912-1.267 3.059-1.267c1.147 0 2.248 0.456 3.059 1.267s1.267 1.912 1.267 3.059h3.96z"></path>
</symbol>
<symbol id="first-section-icon-7" viewBox="0 0 52 32">
<path fill="#01013c" style="fill: var(--color1, #01013c)" d="M0 0h32.241c5.045 0 9.134 4.090 9.134 9.134v2.132c0 3.867-3.135 7.002-7.002 7.002h-34.373v-18.269z"></path>
<path fill="#a8dadb" style="fill: var(--color2, #a8dadb)" d="M41.375 12.562c0 3.006-2.437 5.442-5.442 5.442s-5.442-2.437-5.442-5.442c0-3.006 2.437-5.442 5.442-5.442s5.442 2.437 5.442 5.442z"></path>
<path fill="#a8dadb" style="fill: var(--color2, #a8dadb)" d="M46.818 7.119c-1.443 0-2.828 0.573-3.849 1.594s-1.594 2.405-1.594 3.848 0.573 2.828 1.594 3.848c1.021 1.021 2.405 1.594 3.849 1.594v-2.601c-0.754 0-1.476-0.299-2.009-0.832s-0.832-1.256-0.832-2.009c0-0.754 0.299-1.476 0.832-2.009s1.256-0.832 2.009-0.832v-2.601z"></path>
<path fill="#a8dadb" style="fill: var(--color2, #a8dadb)" d="M3.598 12.497h19.455v19.455h-19.455v-19.455z"></path>
<path fill="#01013c" style="fill: var(--color1, #01013c)" d="M11.376 24.283c-0.315 0-0.582-0.055-0.8-0.163-0.214-0.109-0.387-0.261-0.519-0.455s-0.228-0.418-0.286-0.671-0.088-0.521-0.088-0.805c0-0.296 0.031-0.572 0.093-0.829 0.062-0.261 0.161-0.488 0.298-0.683s0.313-0.346 0.531-0.455c0.218-0.113 0.481-0.169 0.788-0.169 0.311 0 0.574 0.056 0.788 0.169 0.218 0.109 0.393 0.263 0.525 0.461 0.136 0.194 0.233 0.42 0.292 0.677 0.062 0.253 0.093 0.523 0.093 0.811 0 0.292-0.031 0.566-0.093 0.823-0.062 0.253-0.161 0.477-0.298 0.671-0.132 0.194-0.307 0.346-0.525 0.455s-0.484 0.163-0.8 0.163zM11.376 23.309c0.16 0 0.284-0.041 0.374-0.122 0.093-0.082 0.16-0.183 0.198-0.304 0.043-0.124 0.070-0.251 0.082-0.379s0.018-0.239 0.018-0.333c0-0.090-0.006-0.197-0.018-0.321-0.008-0.128-0.031-0.253-0.070-0.373s-0.103-0.222-0.193-0.304c-0.086-0.082-0.208-0.122-0.368-0.122-0.156 0-0.28 0.041-0.374 0.122-0.089 0.078-0.156 0.177-0.198 0.298s-0.072 0.245-0.088 0.374c-0.012 0.124-0.018 0.233-0.018 0.327 0 0.089 0.004 0.198 0.012 0.327 0.012 0.128 0.037 0.255 0.076 0.379s0.103 0.228 0.193 0.309 0.214 0.122 0.374 0.122zM13.572 24.237l1.517-3.152h-1.833v-0.981h3.041v0.753l-1.547 3.379h-1.179z"></path>
</symbol>
<symbol id="second-section-icon-1" viewBox="0 0 51 32">
<path fill="#01013c" style="fill: var(--color1, #01013c)" d="M0 0.064h31.679c4.957 0 8.975 4.018 8.975 8.975v2.467c0 3.594-2.914 6.508-6.508 6.508h-34.146v-17.95z"></path>
<path fill="#6384ee" style="fill: var(--color3, #6384ee)" d="M40.654 12.779c0 2.953-2.394 5.348-5.348 5.348s-5.348-2.394-5.348-5.348c0-2.953 2.394-5.348 5.348-5.348s5.348 2.394 5.348 5.348z"></path>
<path fill="#6384ee" style="fill: var(--color3, #6384ee)" d="M46.001 7.431c-1.418 0-2.778 0.563-3.781 1.566s-1.566 2.363-1.566 3.781 0.563 2.778 1.566 3.781c1.003 1.003 2.363 1.566 3.781 1.566v-2.556c-0.74 0-1.451-0.294-1.974-0.818s-0.818-1.234-0.818-1.974c0-0.74 0.294-1.45 0.818-1.974s1.234-0.818 1.974-0.818v-2.556z"></path>
<path fill="#6384ee" style="fill: var(--color3, #6384ee)" d="M3.535 12.758h19.115v19.115h-19.115v-19.115z"></path>
<path fill="#01013c" style="fill: var(--color1, #01013c)" d="M11.871 24.517c-0.31 0-0.572-0.054-0.786-0.161-0.21-0.107-0.38-0.256-0.51-0.447s-0.224-0.411-0.281-0.66-0.086-0.512-0.086-0.791c0-0.29 0.031-0.562 0.092-0.814 0.061-0.256 0.159-0.48 0.292-0.671s0.308-0.34 0.522-0.447c0.214-0.111 0.472-0.166 0.774-0.166 0.306 0 0.564 0.055 0.774 0.166 0.214 0.107 0.386 0.258 0.516 0.453 0.134 0.191 0.229 0.413 0.287 0.665 0.061 0.249 0.092 0.514 0.092 0.797 0 0.287-0.031 0.556-0.092 0.809-0.061 0.249-0.159 0.468-0.292 0.66-0.13 0.191-0.302 0.34-0.516 0.447s-0.476 0.161-0.786 0.161zM11.871 23.56c0.157 0 0.279-0.040 0.367-0.121 0.092-0.080 0.157-0.18 0.195-0.298 0.042-0.122 0.069-0.247 0.080-0.373s0.017-0.235 0.017-0.327c0-0.088-0.006-0.193-0.017-0.315-0.008-0.126-0.031-0.249-0.069-0.367s-0.101-0.218-0.189-0.298c-0.084-0.080-0.205-0.12-0.361-0.12-0.153 0-0.275 0.040-0.367 0.12-0.088 0.076-0.153 0.174-0.195 0.292s-0.071 0.241-0.086 0.367c-0.011 0.122-0.017 0.229-0.017 0.321 0 0.088 0.004 0.195 0.011 0.321 0.011 0.126 0.036 0.25 0.075 0.373s0.101 0.224 0.189 0.304c0.088 0.080 0.21 0.121 0.367 0.121zM14.568 24.471v-2.793h-0.774v-0.803c0.161 0 0.306-0.013 0.436-0.040s0.247-0.074 0.35-0.143c0.103-0.069 0.193-0.163 0.27-0.281h0.757v4.060h-1.038z"></path>
</symbol>
<symbol id="second-section-icon-2" viewBox="0 0 46 32">
<path fill="#6384ee" style="fill: var(--color3, #6384ee)" d="M16.432 0h29.62v29.62h-29.62v-29.62z"></path>
<path fill="#01013c" style="fill: var(--color1, #01013c)" d="M28.852 17.945c-0.48 0-0.886-0.083-1.217-0.249-0.326-0.166-0.589-0.397-0.791-0.693s-0.347-0.637-0.435-1.022c-0.089-0.385-0.133-0.794-0.133-1.226 0-0.45 0.047-0.871 0.142-1.262 0.095-0.397 0.246-0.743 0.453-1.040s0.477-0.527 0.809-0.693c0.332-0.172 0.732-0.258 1.2-0.258 0.474 0 0.874 0.086 1.2 0.258 0.332 0.166 0.599 0.4 0.8 0.702 0.207 0.296 0.355 0.64 0.444 1.031 0.095 0.385 0.142 0.797 0.142 1.235 0 0.444-0.047 0.862-0.142 1.253-0.095 0.385-0.246 0.726-0.453 1.022-0.201 0.296-0.468 0.527-0.8 0.693s-0.738 0.249-1.217 0.249zM28.852 16.461c0.243 0 0.432-0.062 0.569-0.187 0.142-0.124 0.243-0.278 0.302-0.462 0.065-0.19 0.106-0.382 0.124-0.578s0.027-0.364 0.027-0.506c0-0.136-0.009-0.299-0.027-0.489-0.012-0.195-0.047-0.385-0.107-0.569s-0.157-0.338-0.293-0.462c-0.13-0.124-0.317-0.187-0.56-0.187-0.237 0-0.427 0.062-0.569 0.187-0.136 0.118-0.237 0.27-0.302 0.453s-0.11 0.373-0.133 0.569c-0.018 0.19-0.027 0.355-0.027 0.498 0 0.136 0.006 0.302 0.018 0.498 0.018 0.195 0.056 0.388 0.116 0.578s0.157 0.347 0.293 0.471c0.136 0.124 0.326 0.187 0.569 0.187zM31.789 17.874v-1.315l1.715-1.386c0.107-0.089 0.231-0.19 0.373-0.302s0.279-0.234 0.409-0.364c0.136-0.136 0.249-0.273 0.338-0.409 0.089-0.142 0.133-0.284 0.133-0.427 0-0.178-0.056-0.329-0.169-0.453-0.113-0.13-0.296-0.196-0.551-0.196-0.272 0-0.471 0.065-0.595 0.195-0.118 0.124-0.187 0.273-0.204 0.444h-1.493c0.018-0.492 0.136-0.895 0.355-1.208 0.225-0.32 0.513-0.557 0.862-0.711 0.355-0.16 0.732-0.24 1.129-0.24 0.403 0 0.773 0.077 1.111 0.231 0.343 0.148 0.619 0.37 0.826 0.666 0.207 0.29 0.311 0.649 0.311 1.075 0 0.332-0.065 0.643-0.195 0.933-0.125 0.284-0.302 0.554-0.533 0.809-0.231 0.249-0.498 0.489-0.8 0.72l-0.604 0.453h2.071v1.484h-4.488z"></path>
<path fill="#6384ee" style="fill: var(--color3, #6384ee)" d="M16.573 23.566c0-2.198-0.873-4.305-2.427-5.859s-3.662-2.427-5.859-2.427c-2.198 0-4.305 0.873-5.859 2.427s-2.427 3.662-2.427 5.859h3.96c0-1.147 0.456-2.248 1.267-3.059s1.912-1.267 3.059-1.267c1.147 0 2.248 0.456 3.059 1.267s1.267 1.912 1.267 3.059h3.96z"></path>
</symbol>
<symbol id="second-section-icon-3" viewBox="0 0 52 32">
<path fill="#01013c" style="fill: var(--color1, #01013c)" d="M0 0h32.051c5.015 0 9.081 4.066 9.081 9.081v2.496c0 3.637-2.948 6.584-6.584 6.584h-34.548v-18.161z"></path>
<path fill="#6384ee" style="fill: var(--color3, #6384ee)" d="M41.132 12.676c0 2.988-2.422 5.41-5.41 5.41s-5.41-2.422-5.41-5.41c0-2.988 2.422-5.41 5.41-5.41s5.41 2.422 5.41 5.41z"></path>
<path fill="#6384ee" style="fill: var(--color3, #6384ee)" d="M46.542 7.266c-1.435 0-2.811 0.57-3.826 1.585s-1.585 2.391-1.585 3.826 0.57 2.811 1.585 3.826c1.015 1.015 2.391 1.585 3.826 1.585v-2.586c-0.749 0-1.468-0.298-1.997-0.827s-0.827-1.248-0.827-1.997c0-0.749 0.298-1.468 0.827-1.997s1.248-0.827 1.997-0.827v-2.586z"></path>
<path fill="#6384ee" style="fill: var(--color3, #6384ee)" d="M3.576 12.612h19.34v19.34h-19.34v-19.34z"></path>
<path fill="#01013c" style="fill: var(--color1, #01013c)" d="M11.309 24.329c-0.313 0-0.578-0.054-0.795-0.162-0.213-0.108-0.385-0.259-0.516-0.453s-0.226-0.416-0.284-0.667-0.087-0.518-0.087-0.801c0-0.294 0.031-0.569 0.093-0.824 0.062-0.259 0.161-0.485 0.296-0.679s0.311-0.344 0.528-0.453c0.217-0.112 0.478-0.168 0.783-0.168 0.309 0 0.571 0.056 0.783 0.168 0.217 0.108 0.391 0.261 0.522 0.458 0.135 0.193 0.232 0.418 0.29 0.673 0.062 0.251 0.093 0.52 0.093 0.807 0 0.29-0.031 0.563-0.093 0.818-0.062 0.251-0.161 0.474-0.296 0.667-0.132 0.193-0.306 0.344-0.522 0.453s-0.482 0.162-0.795 0.162zM11.309 23.36c0.159 0 0.282-0.040 0.371-0.122 0.093-0.081 0.159-0.182 0.197-0.302 0.043-0.124 0.070-0.249 0.081-0.377s0.017-0.238 0.017-0.331c0-0.089-0.006-0.195-0.017-0.319-0.008-0.128-0.031-0.251-0.070-0.371s-0.102-0.221-0.191-0.302c-0.085-0.081-0.207-0.122-0.366-0.122-0.155 0-0.278 0.040-0.371 0.122-0.089 0.077-0.155 0.176-0.197 0.296s-0.072 0.244-0.087 0.371c-0.012 0.124-0.017 0.232-0.017 0.325 0 0.089 0.004 0.197 0.012 0.325 0.012 0.128 0.037 0.253 0.075 0.377s0.102 0.226 0.191 0.308 0.213 0.122 0.371 0.122zM15.018 24.323c-0.217 0-0.424-0.027-0.621-0.081-0.193-0.058-0.369-0.145-0.528-0.261-0.155-0.12-0.282-0.269-0.383-0.447-0.101-0.182-0.162-0.396-0.186-0.644h1.021c0.015 0.097 0.054 0.18 0.116 0.249 0.062 0.066 0.143 0.116 0.244 0.151s0.215 0.052 0.342 0.052c0.085 0 0.161-0.008 0.226-0.023 0.070-0.016 0.128-0.039 0.174-0.070s0.081-0.068 0.104-0.11c0.023-0.047 0.035-0.101 0.035-0.162 0-0.050-0.010-0.095-0.029-0.133-0.015-0.043-0.041-0.079-0.075-0.11-0.031-0.031-0.073-0.054-0.128-0.070-0.050-0.019-0.11-0.029-0.18-0.029h-0.534v-0.876h0.377c0.077 0 0.143-0.010 0.197-0.029s0.097-0.044 0.128-0.075c0.035-0.031 0.060-0.066 0.075-0.104 0.015-0.043 0.023-0.085 0.023-0.128 0-0.066-0.015-0.122-0.046-0.168-0.031-0.050-0.079-0.089-0.145-0.116-0.066-0.031-0.149-0.047-0.249-0.047-0.108 0-0.203 0.017-0.284 0.052-0.081 0.031-0.145 0.075-0.191 0.133-0.046 0.054-0.073 0.116-0.081 0.186h-1.010c0.023-0.232 0.081-0.431 0.174-0.598 0.093-0.17 0.213-0.309 0.36-0.418 0.147-0.112 0.313-0.194 0.499-0.244 0.186-0.054 0.381-0.081 0.586-0.081 0.178 0 0.352 0.021 0.522 0.064 0.17 0.039 0.323 0.104 0.458 0.197 0.139 0.089 0.25 0.207 0.331 0.354 0.085 0.147 0.128 0.325 0.128 0.534 0 0.108-0.019 0.213-0.058 0.313-0.035 0.101-0.085 0.191-0.151 0.273-0.062 0.077-0.132 0.141-0.209 0.191 0.132 0.054 0.238 0.132 0.319 0.232 0.085 0.097 0.147 0.211 0.186 0.342 0.043 0.128 0.064 0.263 0.064 0.406 0 0.236-0.044 0.437-0.133 0.603s-0.211 0.3-0.366 0.4c-0.151 0.101-0.321 0.174-0.511 0.22s-0.387 0.070-0.592 0.070z"></path>
</symbol>
<symbol id="second-section-icon-4" viewBox="0 0 46 32">
<path fill="#6384ee" style="fill: var(--color3, #6384ee)" d="M16.432 0h29.62v29.62h-29.62v-29.62z"></path>
<path fill="#01013c" style="fill: var(--color1, #01013c)" d="M28.852 17.945c-0.48 0-0.886-0.083-1.217-0.249-0.326-0.166-0.589-0.397-0.791-0.693s-0.347-0.637-0.435-1.022c-0.089-0.385-0.133-0.794-0.133-1.226 0-0.45 0.047-0.871 0.142-1.262 0.095-0.397 0.246-0.743 0.453-1.040s0.477-0.527 0.809-0.693c0.332-0.172 0.732-0.258 1.2-0.258 0.474 0 0.874 0.086 1.2 0.258 0.332 0.166 0.599 0.4 0.8 0.702 0.207 0.296 0.355 0.64 0.444 1.031 0.095 0.385 0.142 0.797 0.142 1.235 0 0.444-0.047 0.862-0.142 1.253-0.095 0.385-0.246 0.726-0.453 1.022-0.201 0.296-0.468 0.527-0.8 0.693s-0.738 0.249-1.217 0.249zM28.852 16.461c0.243 0 0.432-0.062 0.569-0.187 0.142-0.124 0.243-0.278 0.302-0.462 0.065-0.19 0.106-0.382 0.124-0.578s0.027-0.364 0.027-0.507c0-0.136-0.009-0.299-0.027-0.489-0.012-0.196-0.047-0.385-0.107-0.569s-0.157-0.338-0.293-0.462c-0.13-0.124-0.317-0.187-0.56-0.187-0.237 0-0.427 0.062-0.569 0.187-0.136 0.118-0.237 0.27-0.302 0.453s-0.11 0.373-0.133 0.569c-0.018 0.19-0.027 0.355-0.027 0.498 0 0.136 0.006 0.302 0.018 0.498 0.018 0.196 0.056 0.388 0.116 0.578s0.157 0.347 0.293 0.471c0.136 0.124 0.326 0.187 0.569 0.187zM35.029 17.874v-1.093h-3.048v-1.226l2.817-3.972h1.822v3.741h0.693v1.457h-0.693v1.093h-1.591zM33.785 15.323h1.244v-1.875l-1.244 1.875z"></path>
<path fill="#6384ee" style="fill: var(--color3, #6384ee)" d="M16.573 23.566c0-2.198-0.873-4.305-2.427-5.859s-3.662-2.427-5.859-2.427c-2.198 0-4.305 0.873-5.859 2.427s-2.427 3.662-2.427 5.859h3.96c0-1.147 0.456-2.248 1.267-3.059s1.912-1.267 3.059-1.267c1.147 0 2.248 0.456 3.059 1.267s1.267 1.912 1.267 3.059h3.96z"></path>
</symbol>
<symbol id="second-section-icon-5" viewBox="0 0 52 32">
<path fill="#01013c" style="fill: var(--color1, #01013c)" d="M0 0h32.644c4.688 0 8.488 3.8 8.488 8.488 0 5.343-4.331 9.674-9.674 9.674h-31.458v-18.161z"></path>
<path fill="#6384ee" style="fill: var(--color3, #6384ee)" d="M41.132 12.676c0 2.988-2.422 5.41-5.41 5.41s-5.41-2.422-5.41-5.41c0-2.988 2.422-5.41 5.41-5.41s5.41 2.422 5.41 5.41z"></path>
<path fill="#6384ee" style="fill: var(--color3, #6384ee)" d="M46.542 7.266c-1.435 0-2.811 0.57-3.826 1.585s-1.585 2.391-1.585 3.826 0.57 2.811 1.585 3.826c1.015 1.015 2.391 1.585 3.826 1.585v-2.586c-0.749 0-1.468-0.298-1.997-0.827s-0.827-1.248-0.827-1.997c0-0.749 0.298-1.468 0.827-1.997s1.248-0.827 1.997-0.827v-2.586z"></path>
<path fill="#6384ee" style="fill: var(--color3, #6384ee)" d="M3.576 12.612h19.34v19.34h-19.34v-19.34z"></path>
<path fill="#01013c" style="fill: var(--color1, #01013c)" d="M11.309 24.329c-0.313 0-0.578-0.054-0.795-0.162-0.213-0.108-0.385-0.259-0.516-0.453s-0.226-0.416-0.284-0.667-0.087-0.518-0.087-0.801c0-0.294 0.031-0.569 0.093-0.824 0.062-0.259 0.161-0.485 0.296-0.679s0.311-0.344 0.528-0.453c0.217-0.112 0.478-0.168 0.783-0.168 0.309 0 0.571 0.056 0.783 0.168 0.217 0.108 0.391 0.261 0.522 0.458 0.135 0.193 0.232 0.418 0.29 0.673 0.062 0.251 0.093 0.52 0.093 0.807 0 0.29-0.031 0.563-0.093 0.818-0.062 0.251-0.161 0.474-0.296 0.667-0.132 0.193-0.306 0.344-0.522 0.453s-0.482 0.162-0.795 0.162zM11.309 23.36c0.159 0 0.282-0.040 0.371-0.122 0.093-0.081 0.159-0.182 0.197-0.302 0.043-0.124 0.070-0.249 0.081-0.377s0.017-0.238 0.017-0.331c0-0.089-0.006-0.195-0.017-0.319-0.008-0.128-0.031-0.251-0.070-0.371s-0.102-0.221-0.191-0.302c-0.085-0.081-0.207-0.122-0.366-0.122-0.155 0-0.278 0.040-0.371 0.122-0.089 0.077-0.155 0.176-0.197 0.296s-0.072 0.244-0.087 0.371c-0.012 0.124-0.017 0.232-0.017 0.325 0 0.089 0.004 0.197 0.012 0.325 0.012 0.128 0.037 0.253 0.075 0.377s0.102 0.226 0.191 0.308 0.213 0.122 0.371 0.122zM14.989 24.323c-0.205 0-0.395-0.027-0.569-0.081-0.17-0.054-0.323-0.137-0.458-0.249-0.132-0.116-0.24-0.261-0.325-0.435-0.085-0.178-0.141-0.387-0.168-0.627h1.021c0.012 0.054 0.037 0.114 0.075 0.18 0.043 0.066 0.102 0.122 0.18 0.168 0.081 0.043 0.184 0.064 0.308 0.064 0.12 0 0.213-0.023 0.278-0.070 0.070-0.047 0.12-0.104 0.151-0.174s0.046-0.141 0.046-0.215c0-0.135-0.044-0.25-0.133-0.342-0.089-0.097-0.226-0.145-0.412-0.145-0.104 0-0.203 0.017-0.296 0.052s-0.186 0.083-0.278 0.145h-0.83v-2.42h2.866v0.957h-1.868v0.528c0.128-0.077 0.267-0.126 0.418-0.145 0.155-0.023 0.286-0.031 0.395-0.023 0.267 0.012 0.489 0.074 0.667 0.186 0.178 0.108 0.311 0.259 0.4 0.453 0.089 0.19 0.133 0.412 0.133 0.667 0 0.333-0.072 0.613-0.215 0.841-0.139 0.228-0.331 0.4-0.574 0.516-0.24 0.112-0.511 0.168-0.812 0.168z"></path>
</symbol>
<symbol id="second-section-icon-6" viewBox="0 0 46 32">
<path fill="#6384ee" style="fill: var(--color3, #6384ee)" d="M16.432 0h29.62v29.62h-29.62v-29.62z"></path>
<path fill="#01013c" style="fill: var(--color1, #01013c)" d="M28.852 17.945c-0.48 0-0.886-0.083-1.217-0.249-0.326-0.166-0.589-0.397-0.791-0.693s-0.347-0.637-0.435-1.022c-0.089-0.385-0.133-0.794-0.133-1.226 0-0.45 0.047-0.871 0.142-1.262 0.095-0.397 0.246-0.743 0.453-1.040s0.477-0.527 0.809-0.693c0.332-0.172 0.732-0.258 1.2-0.258 0.474 0 0.874 0.086 1.2 0.258 0.332 0.166 0.599 0.4 0.8 0.702 0.207 0.296 0.355 0.64 0.444 1.031 0.095 0.385 0.142 0.797 0.142 1.235 0 0.444-0.047 0.862-0.142 1.253-0.095 0.385-0.246 0.726-0.453 1.022-0.201 0.296-0.468 0.527-0.8 0.693s-0.738 0.249-1.217 0.249zM28.852 16.461c0.243 0 0.432-0.062 0.569-0.187 0.142-0.124 0.243-0.278 0.302-0.462 0.065-0.19 0.106-0.382 0.124-0.578s0.027-0.364 0.027-0.506c0-0.136-0.009-0.299-0.027-0.489-0.012-0.196-0.047-0.385-0.107-0.569s-0.157-0.338-0.293-0.462c-0.13-0.124-0.317-0.187-0.56-0.187-0.237 0-0.427 0.062-0.569 0.187-0.136 0.118-0.237 0.27-0.302 0.453s-0.11 0.373-0.133 0.569c-0.018 0.19-0.027 0.355-0.027 0.498 0 0.136 0.006 0.302 0.018 0.498 0.018 0.196 0.056 0.388 0.116 0.578s0.157 0.347 0.293 0.471c0.136 0.124 0.326 0.187 0.569 0.187zM34.674 17.945c-0.456 0-0.847-0.083-1.173-0.249-0.32-0.172-0.584-0.403-0.791-0.693-0.201-0.296-0.349-0.634-0.444-1.013s-0.142-0.776-0.142-1.191c0-0.438 0.053-0.853 0.16-1.244 0.107-0.397 0.27-0.749 0.489-1.057 0.225-0.308 0.507-0.551 0.844-0.729s0.738-0.267 1.2-0.267c0.391 0 0.743 0.071 1.057 0.213 0.32 0.136 0.581 0.347 0.782 0.631s0.32 0.652 0.355 1.102h-1.466c-0.047-0.142-0.139-0.258-0.276-0.347-0.136-0.095-0.311-0.142-0.524-0.142-0.166 0-0.314 0.030-0.444 0.089-0.125 0.053-0.234 0.127-0.329 0.222s-0.175 0.204-0.24 0.329c-0.059 0.124-0.104 0.255-0.133 0.391-0.030 0.13-0.045 0.264-0.045 0.4 0.148-0.196 0.317-0.341 0.507-0.435 0.19-0.101 0.37-0.166 0.542-0.195 0.178-0.036 0.32-0.053 0.426-0.053 0.427 0 0.788 0.083 1.084 0.249 0.296 0.16 0.521 0.391 0.675 0.693 0.16 0.296 0.24 0.655 0.24 1.075 0 0.456-0.101 0.85-0.302 1.182s-0.48 0.589-0.835 0.773c-0.349 0.178-0.755 0.267-1.217 0.267zM34.692 16.479c0.178-0.006 0.32-0.041 0.426-0.107 0.107-0.071 0.184-0.16 0.231-0.267 0.053-0.113 0.080-0.228 0.080-0.347 0-0.124-0.027-0.24-0.080-0.347s-0.133-0.193-0.24-0.258c-0.107-0.071-0.243-0.107-0.409-0.107s-0.311 0.036-0.436 0.107c-0.118 0.065-0.21 0.154-0.275 0.267-0.059 0.107-0.089 0.222-0.089 0.347 0 0.113 0.029 0.225 0.089 0.338 0.059 0.107 0.145 0.195 0.258 0.267 0.118 0.071 0.266 0.107 0.444 0.107z"></path>
<path fill="#6384ee" style="fill: var(--color3, #6384ee)" d="M16.573 23.566c0-2.198-0.873-4.305-2.427-5.859s-3.662-2.427-5.859-2.427c-2.198 0-4.305 0.873-5.859 2.427s-2.427 3.662-2.427 5.859h3.96c0-1.147 0.456-2.248 1.267-3.059s1.912-1.267 3.059-1.267c1.147 0 2.248 0.456 3.059 1.267s1.267 1.912 1.267 3.059h3.96z"></path>
</symbol>
<symbol id="second-section-icon-7" viewBox="0 0 52 32">
<path fill="#01013c" style="fill: var(--color1, #01013c)" d="M0 0h32.644c4.688 0 8.488 3.8 8.488 8.488 0 5.343-4.331 9.674-9.674 9.674h-31.458v-18.161z"></path>
<path fill="#6384ee" style="fill: var(--color3, #6384ee)" d="M41.132 12.676c0 2.988-2.422 5.41-5.41 5.41s-5.41-2.422-5.41-5.41c0-2.988 2.422-5.41 5.41-5.41s5.41 2.422 5.41 5.41z"></path>
<path fill="#6384ee" style="fill: var(--color3, #6384ee)" d="M46.542 7.266c-1.435 0-2.811 0.57-3.826 1.585s-1.585 2.391-1.585 3.826 0.57 2.811 1.585 3.826c1.015 1.015 2.391 1.585 3.826 1.585v-2.586c-0.749 0-1.468-0.298-1.997-0.827s-0.827-1.248-0.827-1.997c0-0.749 0.298-1.468 0.827-1.997s1.248-0.827 1.997-0.827v-2.586z"></path>
<path fill="#6384ee" style="fill: var(--color3, #6384ee)" d="M3.576 12.612h19.34v19.34h-19.34v-19.34z"></path>
<path fill="#01013c" style="fill: var(--color1, #01013c)" d="M11.309 24.329c-0.313 0-0.578-0.054-0.795-0.162-0.213-0.108-0.385-0.259-0.516-0.453s-0.226-0.416-0.284-0.667-0.087-0.518-0.087-0.801c0-0.294 0.031-0.568 0.093-0.824 0.062-0.259 0.161-0.485 0.296-0.679s0.311-0.344 0.528-0.453c0.217-0.112 0.478-0.168 0.783-0.168 0.309 0 0.571 0.056 0.783 0.168 0.217 0.108 0.391 0.261 0.522 0.458 0.135 0.193 0.232 0.418 0.29 0.673 0.062 0.251 0.093 0.52 0.093 0.807 0 0.29-0.031 0.563-0.093 0.818-0.062 0.251-0.161 0.474-0.296 0.667-0.132 0.193-0.306 0.344-0.522 0.453s-0.482 0.162-0.795 0.162zM11.309 23.36c0.159 0 0.282-0.041 0.371-0.122 0.093-0.081 0.159-0.182 0.197-0.302 0.043-0.124 0.070-0.249 0.081-0.377s0.017-0.238 0.017-0.331c0-0.089-0.006-0.195-0.017-0.319-0.008-0.128-0.031-0.251-0.070-0.371s-0.102-0.22-0.191-0.302c-0.085-0.081-0.207-0.122-0.366-0.122-0.155 0-0.278 0.041-0.371 0.122-0.089 0.077-0.155 0.176-0.197 0.296s-0.072 0.244-0.087 0.371c-0.012 0.124-0.017 0.232-0.017 0.325 0 0.089 0.004 0.197 0.012 0.325 0.012 0.128 0.037 0.253 0.075 0.377s0.102 0.226 0.191 0.307c0.089 0.081 0.213 0.122 0.371 0.122zM13.492 24.282l1.509-3.133h-1.822v-0.975h3.023v0.749l-1.538 3.359h-1.172z"></path>
</symbol>
<symbol id="desktop-victoriya-icon-1" viewBox="0 0 60 32">
<path fill="#01013c" style="fill: var(--color1, #01013c)" d="M0 11.032h35.178c6.799 0 12.31 5.512 12.31 12.311v1.863c0 3.752-3.042 6.795-6.795 6.795h-40.694v-20.968z"></path>
<path fill="#a8dadb" style="fill: var(--color2, #a8dadb)" d="M4.749 0h21.918v21.918h-21.918v-21.918z"></path>
<path fill="#01013c" style="fill: var(--color1, #01013c)" d="M14.351 13.349c-0.355 0-0.655-0.061-0.901-0.184-0.241-0.123-0.436-0.294-0.585-0.513s-0.256-0.471-0.322-0.756c-0.066-0.285-0.099-0.587-0.099-0.907 0-0.333 0.035-0.644 0.105-0.934 0.070-0.294 0.182-0.55 0.335-0.769s0.353-0.39 0.598-0.513c0.245-0.127 0.541-0.191 0.888-0.191 0.351 0 0.647 0.064 0.888 0.191 0.245 0.123 0.443 0.296 0.592 0.519 0.153 0.219 0.263 0.473 0.329 0.763 0.070 0.285 0.105 0.59 0.105 0.914 0 0.329-0.035 0.638-0.105 0.927-0.070 0.285-0.182 0.537-0.335 0.756-0.149 0.219-0.346 0.39-0.592 0.513s-0.546 0.184-0.901 0.184zM14.351 12.251c0.18 0 0.32-0.046 0.421-0.138 0.105-0.092 0.18-0.206 0.224-0.342 0.048-0.14 0.079-0.283 0.092-0.427s0.020-0.27 0.020-0.375c0-0.101-0.007-0.221-0.020-0.362-0.009-0.145-0.035-0.285-0.079-0.421s-0.116-0.25-0.217-0.342c-0.096-0.092-0.235-0.138-0.414-0.138-0.175 0-0.316 0.046-0.421 0.138-0.101 0.088-0.175 0.199-0.224 0.335s-0.081 0.276-0.099 0.421c-0.013 0.14-0.020 0.263-0.020 0.368 0 0.101 0.004 0.224 0.013 0.368 0.013 0.145 0.042 0.287 0.085 0.427s0.116 0.256 0.217 0.348c0.101 0.092 0.241 0.138 0.421 0.138zM17.443 13.297v-3.202h-0.888v-0.921c0.184 0 0.351-0.015 0.5-0.046s0.283-0.085 0.401-0.164c0.118-0.079 0.221-0.186 0.309-0.322h0.868v4.655h-1.19z"></path>
<path fill="#a8dadb" style="fill: var(--color2, #a8dadb)" d="M47.489 25.753c0 3.45-2.797 6.247-6.247 6.247s-6.247-2.797-6.247-6.247c0-3.45 2.797-6.247 6.247-6.247s6.247 2.797 6.247 6.247z"></path>
<path fill="#a8dadb" style="fill: var(--color2, #a8dadb)" d="M53.735 19.507c-1.657 0-3.246 0.658-4.417 1.83s-1.83 2.76-1.83 4.417 0.658 3.246 1.83 4.417c1.172 1.171 2.76 1.83 4.417 1.83v-2.985c-0.865 0-1.694-0.344-2.306-0.955s-0.955-1.441-0.955-2.306c0-0.865 0.344-1.694 0.955-2.306s1.441-0.955 2.306-0.955v-2.985z"></path>
</symbol>
<symbol id="desktop-victoriya-icon-2" viewBox="0 0 37 32">
<path fill="#a8dadb" style="fill: var(--color1, #a8dadb)" d="M15.037 0h22.222v22.222h-22.222v-22.222z"></path>
<path fill="#01013c" style="fill: var(--color2, #01013c)" d="M24.254 13.535c-0.36 0-0.664-0.062-0.913-0.187-0.244-0.124-0.442-0.298-0.593-0.52s-0.26-0.478-0.327-0.767c-0.067-0.289-0.1-0.596-0.1-0.92 0-0.338 0.036-0.653 0.107-0.947 0.071-0.298 0.184-0.558 0.34-0.78s0.358-0.396 0.607-0.52c0.249-0.129 0.549-0.193 0.9-0.193 0.356 0 0.656 0.064 0.9 0.193 0.249 0.124 0.449 0.3 0.6 0.527 0.156 0.222 0.267 0.48 0.333 0.773 0.071 0.289 0.107 0.598 0.107 0.927 0 0.333-0.036 0.647-0.107 0.94-0.071 0.289-0.184 0.544-0.34 0.767-0.151 0.222-0.351 0.396-0.6 0.52s-0.553 0.187-0.913 0.187zM24.254 12.421c0.182 0 0.324-0.047 0.427-0.14 0.107-0.093 0.182-0.209 0.227-0.347 0.049-0.142 0.080-0.287 0.093-0.433s0.020-0.273 0.020-0.38c0-0.102-0.007-0.224-0.020-0.367-0.009-0.147-0.036-0.289-0.080-0.427s-0.118-0.253-0.22-0.347c-0.098-0.093-0.238-0.14-0.42-0.14-0.178 0-0.32 0.047-0.427 0.14-0.102 0.089-0.178 0.202-0.227 0.34s-0.082 0.28-0.1 0.427c-0.013 0.142-0.020 0.267-0.020 0.373 0 0.102 0.004 0.227 0.013 0.373 0.013 0.147 0.042 0.291 0.087 0.433s0.118 0.26 0.22 0.353c0.102 0.093 0.244 0.14 0.427 0.14zM26.458 13.481v-0.987l1.287-1.040c0.080-0.067 0.173-0.142 0.28-0.227s0.209-0.176 0.307-0.273c0.102-0.102 0.187-0.204 0.253-0.307 0.067-0.107 0.1-0.213 0.1-0.32 0-0.133-0.042-0.247-0.127-0.34-0.084-0.098-0.222-0.147-0.413-0.147-0.204 0-0.353 0.049-0.447 0.147-0.089 0.093-0.14 0.204-0.153 0.333h-1.12c0.013-0.369 0.102-0.671 0.267-0.907 0.169-0.24 0.384-0.418 0.647-0.533 0.267-0.12 0.549-0.18 0.847-0.18 0.302 0 0.58 0.058 0.833 0.173 0.258 0.111 0.464 0.278 0.62 0.5 0.156 0.218 0.233 0.487 0.233 0.807 0 0.249-0.049 0.482-0.147 0.7-0.093 0.213-0.227 0.416-0.4 0.607-0.173 0.187-0.373 0.367-0.6 0.54l-0.453 0.34h1.553v1.113h-3.367z"></path>
<path fill="#a8dadb" style="fill: var(--color1, #a8dadb)" d="M7.667 32c2.033 0 3.983-0.816 5.421-2.267s2.245-3.421 2.245-5.474-0.808-4.022-2.245-5.474c-1.438-1.452-3.388-2.267-5.421-2.267v3.7c1.062 0 2.080 0.426 2.83 1.184s1.172 1.786 1.172 2.858-0.422 2.1-1.172 2.858c-0.751 0.758-1.769 1.184-2.83 1.184v3.7z"></path>
</symbol>
<symbol id="desktop-victoriya-icon-3" viewBox="0 0 65 32">
<path fill="#01013c" style="fill: var(--color1, #01013c)" d="M0 11.901h38.826c6.851 0 12.405 5.554 12.405 12.405 0 4.249-3.444 7.693-7.693 7.693h-43.538v-20.099z"></path>
<path fill="#a8dadb" style="fill: var(--color2, #a8dadb)" d="M5.123 0h23.645v23.645h-23.645v-23.645z"></path>
<path fill="#01013c" style="fill: var(--color1, #01013c)" d="M14.694 14.244c-0.383 0-0.707-0.066-0.972-0.199-0.26-0.132-0.471-0.317-0.631-0.553s-0.277-0.508-0.348-0.816c-0.071-0.307-0.106-0.634-0.106-0.979 0-0.359 0.038-0.695 0.114-1.007 0.076-0.317 0.196-0.594 0.362-0.83s0.381-0.421 0.646-0.553c0.265-0.137 0.584-0.206 0.958-0.206 0.378 0 0.698 0.069 0.958 0.206 0.265 0.132 0.478 0.319 0.638 0.56 0.166 0.236 0.284 0.511 0.355 0.823 0.076 0.307 0.113 0.636 0.113 0.986 0 0.355-0.038 0.688-0.113 1-0.076 0.307-0.196 0.579-0.362 0.816-0.161 0.236-0.374 0.421-0.638 0.553s-0.589 0.199-0.972 0.199zM14.694 13.059c0.194 0 0.345-0.050 0.454-0.149 0.114-0.099 0.194-0.222 0.241-0.369 0.052-0.151 0.085-0.305 0.099-0.461s0.021-0.291 0.021-0.404c0-0.109-0.007-0.239-0.021-0.39-0.009-0.156-0.038-0.307-0.085-0.454s-0.125-0.27-0.234-0.369c-0.104-0.099-0.253-0.149-0.447-0.149-0.189 0-0.341 0.050-0.454 0.149-0.109 0.095-0.189 0.215-0.241 0.362s-0.088 0.298-0.106 0.454c-0.014 0.151-0.021 0.284-0.021 0.397 0 0.109 0.005 0.241 0.014 0.397 0.014 0.156 0.045 0.31 0.092 0.461s0.125 0.277 0.234 0.376c0.109 0.099 0.26 0.149 0.454 0.149zM19.228 14.237c-0.265 0-0.518-0.033-0.759-0.099-0.236-0.071-0.452-0.177-0.646-0.319-0.189-0.147-0.345-0.329-0.468-0.546-0.123-0.222-0.199-0.485-0.227-0.787h1.248c0.019 0.118 0.066 0.22 0.142 0.305 0.076 0.080 0.175 0.142 0.298 0.184s0.262 0.064 0.419 0.064c0.104 0 0.196-0.009 0.277-0.028 0.085-0.019 0.156-0.047 0.213-0.085s0.099-0.083 0.128-0.135c0.028-0.057 0.043-0.123 0.043-0.199 0-0.061-0.012-0.116-0.035-0.163-0.019-0.052-0.050-0.097-0.092-0.135-0.038-0.038-0.090-0.066-0.156-0.085-0.061-0.024-0.135-0.035-0.22-0.035h-0.653v-1.071h0.461c0.095 0 0.175-0.012 0.241-0.035s0.118-0.054 0.156-0.092c0.043-0.038 0.073-0.080 0.092-0.128 0.019-0.052 0.028-0.104 0.028-0.156 0-0.080-0.019-0.149-0.057-0.206-0.038-0.061-0.097-0.109-0.177-0.142-0.080-0.038-0.182-0.057-0.305-0.057-0.132 0-0.248 0.021-0.348 0.064-0.099 0.038-0.177 0.092-0.234 0.163-0.057 0.066-0.090 0.142-0.099 0.227h-1.234c0.028-0.284 0.099-0.527 0.213-0.731 0.113-0.208 0.26-0.378 0.44-0.511 0.18-0.137 0.383-0.236 0.61-0.298 0.227-0.066 0.466-0.099 0.716-0.099 0.218 0 0.43 0.026 0.638 0.078 0.208 0.047 0.395 0.128 0.56 0.241 0.17 0.109 0.305 0.253 0.404 0.433 0.104 0.18 0.156 0.397 0.156 0.653 0 0.132-0.024 0.26-0.071 0.383-0.043 0.123-0.104 0.234-0.184 0.333-0.076 0.095-0.161 0.173-0.255 0.234 0.161 0.066 0.291 0.161 0.39 0.284 0.104 0.118 0.18 0.258 0.227 0.419 0.052 0.156 0.078 0.322 0.078 0.497 0 0.288-0.054 0.534-0.163 0.738s-0.258 0.367-0.447 0.489c-0.184 0.123-0.392 0.213-0.624 0.27s-0.473 0.085-0.724 0.085z"></path>
<path fill="#a8dadb" style="fill: var(--color2, #a8dadb)" d="M51.389 25.261c0 3.722-3.017 6.739-6.739 6.739s-6.739-3.017-6.739-6.739c0-3.722 3.017-6.739 6.739-6.739s6.739 3.017 6.739 6.739z"></path>
<path fill="#a8dadb" style="fill: var(--color2, #a8dadb)" d="M58.128 18.522c-1.787 0-3.501 0.71-4.765 1.974s-1.974 2.978-1.974 4.765 0.71 3.501 1.974 4.765c1.264 1.264 2.978 1.974 4.765 1.974v-3.221c-0.933 0-1.828-0.371-2.488-1.030s-1.030-1.555-1.030-2.488c0-0.933 0.371-1.828 1.030-2.488s1.555-1.030 2.488-1.030v-3.221z"></path>
</symbol>
<symbol id="desktop-victoriya-icon-4" viewBox="0 0 42 32">
<path fill="#a8dadb" style="fill: var(--color1, #a8dadb)" d="M16.786 0h24.806v24.806h-24.806v-24.806z"></path>
<path fill="#01013c" style="fill: var(--color2, #01013c)" d="M26.826 14.943c-0.402 0-0.742-0.069-1.020-0.208-0.273-0.139-0.494-0.332-0.662-0.58s-0.29-0.533-0.365-0.856c-0.074-0.322-0.112-0.665-0.112-1.027 0-0.377 0.040-0.729 0.119-1.057 0.079-0.332 0.206-0.623 0.38-0.871s0.399-0.442 0.677-0.58c0.278-0.144 0.613-0.216 1.005-0.216 0.397 0 0.732 0.072 1.005 0.216 0.278 0.139 0.501 0.335 0.67 0.588 0.174 0.248 0.298 0.536 0.372 0.863 0.079 0.322 0.119 0.667 0.119 1.034 0 0.372-0.040 0.722-0.119 1.049-0.079 0.322-0.206 0.608-0.38 0.856-0.169 0.248-0.392 0.442-0.67 0.58s-0.618 0.208-1.020 0.208zM26.826 13.7c0.203 0 0.362-0.052 0.476-0.156 0.119-0.104 0.203-0.233 0.253-0.387 0.055-0.159 0.089-0.32 0.104-0.484s0.022-0.305 0.022-0.424c0-0.114-0.007-0.251-0.022-0.409-0.010-0.164-0.040-0.322-0.089-0.476s-0.131-0.283-0.246-0.387c-0.109-0.104-0.265-0.156-0.469-0.156-0.198 0-0.357 0.052-0.476 0.156-0.114 0.099-0.198 0.226-0.253 0.38s-0.092 0.313-0.112 0.476c-0.015 0.159-0.022 0.298-0.022 0.417 0 0.114 0.005 0.253 0.015 0.417 0.015 0.164 0.047 0.325 0.097 0.484s0.131 0.29 0.246 0.394c0.114 0.104 0.273 0.156 0.476 0.156zM32 14.884v-0.915h-2.553v-1.027l2.359-3.326h1.526v3.133h0.58v1.22h-0.58v0.915h-1.332zM30.958 12.748h1.042v-1.57l-1.042 1.57z"></path>
<path fill="#a8dadb" style="fill: var(--color1, #a8dadb)" d="M8.558 32c2.27 0 4.447-0.91 6.052-2.531s2.507-3.818 2.507-6.11-0.902-4.489-2.507-6.11c-1.605-1.62-3.782-2.531-6.052-2.531v4.13c1.185 0 2.321 0.475 3.159 1.321s1.309 1.993 1.309 3.19-0.471 2.344-1.309 3.19c-0.838 0.846-1.974 1.321-3.159 1.321v4.13z"></path>
</symbol>
<symbol id="desktop-victoriya-icon-5" viewBox="0 0 38 32">
<path fill="#01013c" style="fill: var(--color1, #01013c)" d="M0 8.834h31.444c3.635 0 6.581 2.947 6.581 6.581s-2.947 6.581-6.581 6.581h-31.444v-13.163z"></path>
<path fill="#a8dadb" style="fill: var(--color2, #a8dadb)" d="M3.803 0h17.55v17.55h-17.55v-17.55z"></path>
<path fill="#01013c" style="fill: var(--color1, #01013c)" d="M10.965 10.572c-0.284 0-0.525-0.049-0.721-0.147-0.193-0.098-0.349-0.235-0.469-0.411s-0.205-0.377-0.258-0.605c-0.053-0.228-0.079-0.47-0.079-0.727 0-0.267 0.028-0.516 0.084-0.748 0.056-0.235 0.146-0.441 0.269-0.616s0.283-0.312 0.479-0.411c0.197-0.102 0.434-0.153 0.711-0.153 0.281 0 0.518 0.051 0.711 0.153 0.197 0.098 0.354 0.237 0.474 0.416 0.123 0.175 0.211 0.379 0.263 0.611 0.056 0.228 0.084 0.472 0.084 0.732 0 0.263-0.028 0.511-0.084 0.742-0.056 0.228-0.146 0.43-0.269 0.605-0.119 0.175-0.277 0.312-0.474 0.411s-0.437 0.147-0.721 0.147zM10.965 9.693c0.144 0 0.256-0.037 0.337-0.111 0.084-0.074 0.144-0.165 0.179-0.274 0.039-0.112 0.063-0.226 0.074-0.342s0.016-0.216 0.016-0.3c0-0.081-0.005-0.177-0.016-0.29-0.007-0.116-0.028-0.228-0.063-0.337s-0.093-0.2-0.174-0.274c-0.077-0.074-0.188-0.111-0.332-0.111-0.14 0-0.253 0.037-0.337 0.111-0.081 0.070-0.14 0.16-0.179 0.269s-0.065 0.221-0.079 0.337c-0.011 0.112-0.016 0.211-0.016 0.295 0 0.081 0.004 0.179 0.011 0.295 0.011 0.116 0.033 0.23 0.068 0.342s0.093 0.205 0.174 0.279c0.081 0.074 0.193 0.111 0.337 0.111zM14.304 10.567c-0.186 0-0.358-0.025-0.516-0.074-0.154-0.049-0.293-0.125-0.416-0.226-0.119-0.105-0.218-0.237-0.295-0.395-0.077-0.161-0.128-0.351-0.153-0.569h0.927c0.011 0.049 0.033 0.104 0.068 0.163 0.039 0.060 0.093 0.111 0.163 0.153 0.074 0.039 0.167 0.058 0.279 0.058 0.109 0 0.193-0.021 0.253-0.063 0.063-0.042 0.109-0.095 0.137-0.158s0.042-0.128 0.042-0.195c0-0.123-0.040-0.226-0.121-0.311-0.081-0.088-0.205-0.132-0.374-0.132-0.095 0-0.184 0.016-0.269 0.047s-0.168 0.075-0.253 0.132h-0.753v-2.196h2.601v0.869h-1.695v0.479c0.116-0.070 0.242-0.114 0.379-0.132 0.14-0.021 0.26-0.028 0.358-0.021 0.242 0.011 0.444 0.067 0.605 0.168 0.161 0.098 0.283 0.235 0.363 0.411 0.081 0.172 0.121 0.374 0.121 0.605 0 0.302-0.065 0.556-0.195 0.763-0.126 0.207-0.3 0.363-0.521 0.469-0.218 0.102-0.463 0.153-0.737 0.153z"></path>
<path fill="#a8dadb" style="fill: var(--color2, #a8dadb)" d="M38.026 26.998c0-1.327-0.527-2.599-1.465-3.537s-2.21-1.465-3.537-1.465-2.599 0.527-3.537 1.465c-0.938 0.938-1.465 2.21-1.465 3.537h2.391c0-0.693 0.275-1.357 0.765-1.846s1.154-0.765 1.846-0.765c0.693 0 1.357 0.275 1.846 0.765s0.765 1.154 0.765 1.846h2.391z"></path>
</symbol>
<symbol id="desktop-victoriya-icon-6" viewBox="0 0 44 32">
<path fill="#a8dadb" style="fill: var(--color2, #a8dadb)" d="M17.439 0h26.158v26.158h-26.158v-26.158z"></path>
<path fill="#01013c" style="fill: var(--color1, #01013c)" d="M28.027 15.758c-0.424 0-0.782-0.073-1.075-0.22-0.288-0.146-0.521-0.351-0.698-0.612s-0.306-0.562-0.385-0.902c-0.078-0.34-0.118-0.701-0.118-1.083 0-0.398 0.042-0.769 0.126-1.114 0.084-0.351 0.217-0.657 0.4-0.918s0.421-0.466 0.714-0.612c0.293-0.152 0.646-0.228 1.059-0.228 0.419 0 0.772 0.076 1.059 0.228 0.293 0.146 0.528 0.353 0.706 0.62 0.183 0.262 0.314 0.565 0.392 0.91 0.084 0.34 0.126 0.704 0.126 1.091 0 0.392-0.042 0.761-0.126 1.107-0.084 0.34-0.217 0.641-0.4 0.902-0.178 0.262-0.413 0.466-0.706 0.612s-0.651 0.22-1.075 0.22zM28.027 14.447c0.215 0 0.382-0.055 0.502-0.165 0.126-0.11 0.215-0.246 0.267-0.408 0.058-0.167 0.094-0.337 0.11-0.51s0.024-0.322 0.024-0.447c0-0.12-0.008-0.264-0.024-0.432-0.010-0.173-0.042-0.34-0.094-0.502s-0.139-0.298-0.259-0.408c-0.115-0.11-0.28-0.165-0.494-0.165-0.209 0-0.377 0.055-0.502 0.165-0.12 0.105-0.209 0.238-0.267 0.4s-0.097 0.33-0.118 0.502c-0.016 0.167-0.024 0.314-0.024 0.439 0 0.12 0.005 0.267 0.016 0.439 0.016 0.173 0.050 0.343 0.102 0.51s0.139 0.306 0.259 0.416c0.12 0.11 0.288 0.165 0.502 0.165zM33.168 15.758c-0.403 0-0.748-0.073-1.036-0.22-0.282-0.152-0.515-0.356-0.698-0.612-0.178-0.262-0.309-0.56-0.392-0.895s-0.126-0.685-0.126-1.052c0-0.387 0.047-0.753 0.141-1.099 0.094-0.351 0.238-0.662 0.432-0.934 0.199-0.272 0.447-0.487 0.745-0.643s0.651-0.235 1.059-0.235c0.345 0 0.657 0.063 0.934 0.188 0.282 0.12 0.513 0.306 0.691 0.557s0.282 0.575 0.314 0.973h-1.295c-0.042-0.126-0.123-0.228-0.243-0.306-0.12-0.084-0.275-0.126-0.463-0.126-0.147 0-0.277 0.026-0.392 0.078-0.11 0.047-0.207 0.112-0.29 0.196s-0.154 0.181-0.212 0.29c-0.052 0.11-0.092 0.225-0.118 0.345-0.026 0.115-0.039 0.233-0.039 0.353 0.131-0.173 0.28-0.301 0.447-0.385 0.167-0.089 0.327-0.146 0.479-0.173 0.157-0.031 0.282-0.047 0.377-0.047 0.377 0 0.696 0.073 0.957 0.22 0.262 0.141 0.46 0.345 0.596 0.612 0.141 0.262 0.212 0.578 0.212 0.95 0 0.403-0.089 0.751-0.267 1.044s-0.424 0.521-0.738 0.683c-0.309 0.157-0.667 0.235-1.075 0.235zM33.184 14.463c0.157-0.005 0.282-0.037 0.377-0.094 0.094-0.063 0.162-0.141 0.204-0.235 0.047-0.099 0.071-0.201 0.071-0.306 0-0.11-0.024-0.212-0.071-0.306s-0.118-0.17-0.212-0.228c-0.094-0.063-0.215-0.094-0.361-0.094s-0.275 0.031-0.385 0.094c-0.105 0.058-0.186 0.136-0.243 0.235-0.052 0.094-0.078 0.196-0.078 0.306 0 0.099 0.026 0.199 0.078 0.298 0.052 0.094 0.128 0.173 0.228 0.235 0.105 0.063 0.235 0.094 0.392 0.094z"></path>
<path fill="#a8dadb" style="fill: var(--color2, #a8dadb)" d="M9.025 32c2.393 0 4.689-0.96 6.381-2.669s2.643-4.026 2.643-6.443-0.951-4.734-2.643-6.443c-1.692-1.709-3.988-2.669-6.381-2.669v4.355c1.25 0 2.448 0.501 3.332 1.393s1.38 2.102 1.38 3.364-0.496 2.472-1.38 3.364c-0.884 0.892-2.082 1.393-3.332 1.393v4.355z"></path>
</symbol>
<symbol id="desktop-victoriya-icon-7" viewBox="0 0 65 32">
<path fill="#01013c" style="fill: var(--color1, #01013c)" d="M0 11.901h38.826c6.851 0 12.405 5.554 12.405 12.405 0 4.249-3.444 7.693-7.693 7.693h-43.538v-20.099z"></path>
<path fill="#a8dadb" style="fill: var(--color2, #a8dadb)" d="M5.123 0h23.645v23.645h-23.645v-23.645z"></path>
<path fill="#01013c" style="fill: var(--color1, #01013c)" d="M14.694 14.244c-0.383 0-0.707-0.066-0.972-0.199-0.26-0.132-0.471-0.317-0.631-0.553s-0.277-0.508-0.348-0.816c-0.071-0.307-0.106-0.634-0.106-0.979 0-0.359 0.038-0.695 0.114-1.007 0.076-0.317 0.196-0.594 0.362-0.83s0.381-0.421 0.646-0.553c0.265-0.137 0.584-0.206 0.958-0.206 0.378 0 0.698 0.069 0.958 0.206 0.265 0.132 0.478 0.319 0.638 0.56 0.166 0.236 0.284 0.511 0.355 0.823 0.076 0.307 0.113 0.636 0.113 0.986 0 0.355-0.038 0.688-0.113 1-0.076 0.307-0.196 0.579-0.362 0.816-0.161 0.236-0.374 0.421-0.638 0.553s-0.589 0.199-0.972 0.199zM14.694 13.059c0.194 0 0.345-0.050 0.454-0.149 0.114-0.099 0.194-0.222 0.241-0.369 0.052-0.151 0.085-0.305 0.099-0.461s0.021-0.291 0.021-0.404c0-0.109-0.007-0.239-0.021-0.39-0.009-0.156-0.038-0.307-0.085-0.454s-0.125-0.27-0.234-0.369c-0.104-0.099-0.253-0.149-0.447-0.149-0.189 0-0.341 0.050-0.454 0.149-0.109 0.095-0.189 0.215-0.241 0.362s-0.088 0.298-0.106 0.454c-0.014 0.151-0.021 0.284-0.021 0.397 0 0.109 0.005 0.241 0.014 0.397 0.014 0.156 0.045 0.31 0.092 0.461s0.125 0.277 0.234 0.376c0.109 0.099 0.26 0.149 0.454 0.149zM17.363 14.187l1.844-3.831h-2.227v-1.192h3.696v0.915l-1.88 4.107h-1.433z"></path>
<path fill="#a8dadb" style="fill: var(--color2, #a8dadb)" d="M51.389 25.261c0 3.722-3.017 6.739-6.739 6.739s-6.739-3.017-6.739-6.739c0-3.722 3.017-6.739 6.739-6.739s6.739 3.017 6.739 6.739z"></path>
<path fill="#a8dadb" style="fill: var(--color2, #a8dadb)" d="M58.128 18.522c-1.787 0-3.501 0.71-4.765 1.974s-1.974 2.978-1.974 4.765 0.71 3.501 1.974 4.765c1.264 1.264 2.978 1.974 4.765 1.974v-3.221c-0.933 0-1.828-0.371-2.488-1.030s-1.030-1.555-1.030-2.488c0-0.933 0.371-1.828 1.030-2.488s1.555-1.030 2.488-1.030v-3.221z"></path>
</symbol>
<symbol id="desktop-oleg-icon-1" viewBox="0 0 56 32">
<path fill="#01013c" style="fill: var(--color1, #01013c)" d="M0 10.281h32.783c6.336 0 11.472 5.136 11.472 11.472v3.643c0 3.647-2.957 6.604-6.604 6.604h-37.651v-21.719z"></path>
<path fill="#6384ee" style="fill: var(--color2, #6384ee)" d="M4.426 0h20.426v20.426h-20.426v-20.426z"></path>
<path fill="#01013c" style="fill: var(--color1, #01013c)" d="M13.374 12.441c-0.331 0-0.611-0.057-0.839-0.172-0.225-0.114-0.406-0.274-0.545-0.478s-0.239-0.439-0.3-0.705c-0.061-0.266-0.092-0.547-0.092-0.846 0-0.31 0.033-0.601 0.098-0.87 0.065-0.274 0.17-0.513 0.313-0.717s0.329-0.364 0.558-0.478c0.229-0.118 0.505-0.178 0.827-0.178 0.327 0 0.603 0.059 0.827 0.178 0.229 0.114 0.413 0.276 0.552 0.484 0.143 0.204 0.245 0.441 0.306 0.711 0.065 0.266 0.098 0.549 0.098 0.852 0 0.306-0.033 0.594-0.098 0.864-0.065 0.266-0.17 0.5-0.313 0.705-0.139 0.204-0.323 0.364-0.552 0.478s-0.509 0.172-0.839 0.172zM13.374 11.417c0.168 0 0.298-0.043 0.392-0.129 0.098-0.086 0.168-0.192 0.208-0.319 0.045-0.131 0.074-0.264 0.086-0.398s0.018-0.251 0.018-0.349c0-0.094-0.006-0.206-0.018-0.337-0.008-0.135-0.033-0.266-0.074-0.392s-0.108-0.233-0.202-0.319c-0.090-0.086-0.219-0.129-0.386-0.129-0.163 0-0.294 0.043-0.392 0.129-0.094 0.082-0.163 0.186-0.208 0.313s-0.076 0.257-0.092 0.392c-0.012 0.131-0.018 0.245-0.018 0.343 0 0.094 0.004 0.208 0.012 0.343 0.012 0.135 0.039 0.268 0.080 0.398s0.108 0.239 0.202 0.325c0.094 0.086 0.225 0.129 0.392 0.129zM16.255 12.392v-2.984h-0.827v-0.858c0.172 0 0.327-0.014 0.466-0.043s0.263-0.080 0.374-0.153c0.11-0.074 0.206-0.174 0.288-0.3h0.809v4.338h-1.109z"></path>
<path fill="#6384ee" style="fill: var(--color2, #6384ee)" d="M44.255 26.179c0 3.215-2.606 5.821-5.821 5.821s-5.821-2.606-5.821-5.821c0-3.215 2.606-5.821 5.821-5.821s5.821 2.606 5.821 5.821z"></path>
<path fill="#6384ee" style="fill: var(--color2, #6384ee)" d="M50.077 20.357c-1.544 0-3.025 0.613-4.116 1.705s-1.705 2.572-1.705 4.116 0.613 3.025 1.705 4.116c1.092 1.092 2.572 1.705 4.116 1.705v-2.782c-0.806 0-1.579-0.32-2.149-0.89s-0.89-1.343-0.89-2.149c0-0.806 0.32-1.579 0.89-2.149s1.343-0.89 2.149-0.89v-2.782z"></path>
</symbol>
<symbol id="desktop-oleg-icon-2" viewBox="0 0 37 32">
<path fill="#6384ee" style="fill: var(--color2, #6384ee)" d="M15.037 0h22.222v22.222h-22.222v-22.222z"></path>
<path fill="#01013c" style="fill: var(--color1, #01013c)" d="M24.254 13.535c-0.36 0-0.664-0.062-0.913-0.187-0.244-0.124-0.442-0.298-0.593-0.52s-0.26-0.478-0.327-0.767c-0.067-0.289-0.1-0.596-0.1-0.92 0-0.338 0.036-0.653 0.107-0.947 0.071-0.298 0.184-0.558 0.34-0.78s0.358-0.396 0.607-0.52c0.249-0.129 0.549-0.193 0.9-0.193 0.356 0 0.656 0.064 0.9 0.193 0.249 0.124 0.449 0.3 0.6 0.527 0.156 0.222 0.267 0.48 0.333 0.773 0.071 0.289 0.107 0.598 0.107 0.927 0 0.333-0.036 0.647-0.107 0.94-0.071 0.289-0.184 0.544-0.34 0.767-0.151 0.222-0.351 0.396-0.6 0.52s-0.553 0.187-0.913 0.187zM24.254 12.421c0.182 0 0.324-0.047 0.427-0.14 0.107-0.093 0.182-0.209 0.227-0.347 0.049-0.142 0.080-0.287 0.093-0.433s0.020-0.273 0.020-0.38c0-0.102-0.007-0.224-0.020-0.367-0.009-0.147-0.036-0.289-0.080-0.427s-0.118-0.253-0.22-0.347c-0.098-0.093-0.238-0.14-0.42-0.14-0.178 0-0.32 0.047-0.427 0.14-0.102 0.089-0.178 0.202-0.227 0.34s-0.082 0.28-0.1 0.427c-0.013 0.142-0.020 0.267-0.020 0.373 0 0.102 0.004 0.227 0.013 0.373 0.013 0.147 0.042 0.291 0.087 0.433s0.118 0.26 0.22 0.353c0.102 0.093 0.244 0.14 0.427 0.14zM26.458 13.481v-0.987l1.287-1.040c0.080-0.067 0.173-0.142 0.28-0.227s0.209-0.176 0.307-0.273c0.102-0.102 0.187-0.204 0.253-0.307 0.067-0.107 0.1-0.213 0.1-0.32 0-0.133-0.042-0.247-0.127-0.34-0.084-0.098-0.222-0.147-0.413-0.147-0.204 0-0.353 0.049-0.447 0.147-0.089 0.093-0.14 0.204-0.153 0.333h-1.12c0.013-0.369 0.102-0.671 0.267-0.907 0.169-0.24 0.384-0.418 0.647-0.533 0.267-0.12 0.549-0.18 0.847-0.18 0.302 0 0.58 0.058 0.833 0.173 0.258 0.111 0.464 0.278 0.62 0.5 0.156 0.218 0.233 0.487 0.233 0.807 0 0.249-0.049 0.482-0.147 0.7-0.093 0.213-0.227 0.416-0.4 0.607-0.173 0.187-0.373 0.367-0.6 0.54l-0.453 0.34h1.553v1.113h-3.367z"></path>
<path fill="#6384ee" style="fill: var(--color2, #6384ee)" d="M7.667 32c2.033 0 3.983-0.816 5.421-2.267s2.245-3.421 2.245-5.474-0.808-4.022-2.245-5.474c-1.438-1.452-3.388-2.267-5.421-2.267v3.7c1.062 0 2.080 0.426 2.83 1.184s1.172 1.786 1.172 2.858-0.422 2.1-1.172 2.858c-0.751 0.758-1.769 1.184-2.83 1.184v3.7z"></path>
</symbol>
<symbol id="desktop-oleg-icon-3" viewBox="0 0 66 32">
<path fill="#01013c" style="fill: var(--color1, #01013c)" d="M0 12.141h39.658c6.961 0 12.604 5.643 12.604 12.604 0 4.007-3.248 7.256-7.256 7.256h-45.006v-19.859z"></path>
<path fill="#6384ee" style="fill: var(--color2, #6384ee)" d="M5.226 0h24.121v24.121h-24.121v-24.121z"></path>
<path fill="#01013c" style="fill: var(--color1, #01013c)" d="M14.989 14.53c-0.391 0-0.721-0.068-0.991-0.203-0.265-0.135-0.48-0.323-0.644-0.564s-0.282-0.519-0.355-0.832c-0.072-0.314-0.109-0.646-0.109-0.999 0-0.367 0.039-0.709 0.116-1.028 0.077-0.323 0.2-0.605 0.369-0.847s0.388-0.429 0.659-0.564c0.27-0.14 0.596-0.21 0.977-0.21 0.386 0 0.712 0.070 0.977 0.21 0.27 0.135 0.487 0.326 0.651 0.572 0.169 0.241 0.289 0.521 0.362 0.839 0.077 0.314 0.116 0.649 0.116 1.006 0 0.362-0.039 0.702-0.116 1.020-0.077 0.314-0.2 0.591-0.369 0.832-0.164 0.241-0.381 0.429-0.651 0.564s-0.601 0.203-0.991 0.203zM14.989 13.322c0.198 0 0.352-0.051 0.463-0.152 0.116-0.101 0.198-0.227 0.246-0.376 0.053-0.154 0.087-0.311 0.101-0.47s0.022-0.297 0.022-0.412c0-0.111-0.007-0.244-0.022-0.398-0.010-0.159-0.039-0.314-0.087-0.463s-0.128-0.275-0.239-0.376c-0.106-0.101-0.258-0.152-0.456-0.152-0.193 0-0.347 0.051-0.463 0.152-0.111 0.096-0.193 0.22-0.246 0.369s-0.089 0.304-0.109 0.463c-0.014 0.154-0.022 0.289-0.022 0.405 0 0.111 0.005 0.246 0.014 0.405 0.014 0.159 0.046 0.316 0.094 0.47s0.128 0.282 0.239 0.384c0.111 0.101 0.265 0.152 0.463 0.152zM19.615 14.523c-0.27 0-0.528-0.034-0.774-0.101-0.241-0.072-0.461-0.181-0.659-0.326-0.193-0.15-0.352-0.335-0.478-0.557-0.125-0.227-0.203-0.494-0.232-0.803h1.274c0.019 0.121 0.068 0.224 0.145 0.311 0.077 0.082 0.178 0.145 0.304 0.188s0.268 0.065 0.427 0.065c0.106 0 0.2-0.010 0.282-0.029 0.087-0.019 0.159-0.048 0.217-0.087s0.101-0.084 0.13-0.137c0.029-0.058 0.043-0.125 0.043-0.203 0-0.063-0.012-0.118-0.036-0.166-0.019-0.053-0.051-0.099-0.094-0.137-0.039-0.039-0.092-0.068-0.159-0.087-0.063-0.024-0.137-0.036-0.224-0.036h-0.666v-1.093h0.47c0.096 0 0.178-0.012 0.246-0.036s0.121-0.055 0.159-0.094c0.043-0.039 0.075-0.082 0.094-0.13 0.019-0.053 0.029-0.106 0.029-0.159 0-0.082-0.019-0.152-0.058-0.21-0.039-0.063-0.099-0.111-0.181-0.145-0.082-0.039-0.186-0.058-0.311-0.058-0.135 0-0.253 0.022-0.355 0.065-0.101 0.039-0.181 0.094-0.239 0.166-0.058 0.068-0.092 0.145-0.101 0.232h-1.259c0.029-0.289 0.101-0.538 0.217-0.745 0.116-0.212 0.265-0.386 0.449-0.521 0.183-0.14 0.391-0.241 0.622-0.304 0.232-0.068 0.475-0.101 0.731-0.101 0.222 0 0.439 0.027 0.651 0.080 0.212 0.048 0.403 0.13 0.572 0.246 0.174 0.111 0.311 0.258 0.412 0.441 0.106 0.183 0.159 0.405 0.159 0.666 0 0.135-0.024 0.265-0.072 0.391-0.043 0.125-0.106 0.239-0.188 0.34-0.077 0.096-0.164 0.176-0.261 0.239 0.164 0.068 0.297 0.164 0.398 0.289 0.106 0.121 0.183 0.263 0.232 0.427 0.053 0.159 0.080 0.328 0.080 0.507 0 0.294-0.055 0.545-0.166 0.753s-0.263 0.374-0.456 0.499c-0.188 0.125-0.4 0.217-0.637 0.275s-0.482 0.087-0.738 0.087z"></path>
<path fill="#6384ee" style="fill: var(--color2, #6384ee)" d="M52.261 25.126c0 3.797-3.078 6.874-6.874 6.874s-6.874-3.078-6.874-6.874c0-3.797 3.078-6.874 6.874-6.874s6.874 3.078 6.874 6.874z"></path>
<path fill="#6384ee" style="fill: var(--color2, #6384ee)" d="M59.136 18.251c-1.823 0-3.572 0.724-4.861 2.013s-2.013 3.038-2.013 4.861 0.724 3.572 2.013 4.861c1.289 1.289 3.038 2.013 4.861 2.013v-3.285c-0.952 0-1.865-0.378-2.538-1.051s-1.051-1.586-1.051-2.538c0-0.952 0.378-1.865 1.051-2.538s1.586-1.051 2.538-1.051v-3.285z"></path>
</symbol>
<symbol id="desktop-oleg-icon-4" viewBox="0 0 37 32">
<path fill="#6384ee" style="fill: var(--color2, #6384ee)" d="M15.037 0h22.222v22.222h-22.222v-22.222z"></path>
<path fill="#01013c" style="fill: var(--color1, #01013c)" d="M24.106 13.609c-0.36 0-0.664-0.062-0.913-0.187-0.244-0.124-0.442-0.298-0.593-0.52s-0.26-0.478-0.327-0.767c-0.067-0.289-0.1-0.596-0.1-0.92 0-0.338 0.036-0.653 0.107-0.947 0.071-0.298 0.184-0.558 0.34-0.78s0.358-0.396 0.607-0.52c0.249-0.129 0.549-0.193 0.9-0.193 0.356 0 0.656 0.064 0.9 0.193 0.249 0.124 0.449 0.3 0.6 0.527 0.156 0.222 0.267 0.48 0.333 0.773 0.071 0.289 0.107 0.598 0.107 0.927 0 0.333-0.036 0.647-0.107 0.94-0.071 0.289-0.184 0.544-0.34 0.767-0.151 0.222-0.351 0.396-0.6 0.52s-0.553 0.187-0.913 0.187zM24.106 12.496c0.182 0 0.324-0.047 0.427-0.14 0.107-0.093 0.182-0.209 0.227-0.347 0.049-0.142 0.080-0.287 0.093-0.433s0.020-0.273 0.020-0.38c0-0.102-0.007-0.224-0.020-0.367-0.009-0.147-0.036-0.289-0.080-0.427s-0.118-0.253-0.22-0.347c-0.098-0.093-0.238-0.14-0.42-0.14-0.178 0-0.32 0.047-0.427 0.14-0.102 0.089-0.178 0.202-0.227 0.34s-0.082 0.28-0.1 0.427c-0.013 0.142-0.020 0.267-0.020 0.373 0 0.102 0.004 0.227 0.013 0.373 0.013 0.147 0.042 0.291 0.087 0.433s0.118 0.26 0.22 0.353c0.102 0.093 0.244 0.14 0.427 0.14zM28.741 13.556v-0.82h-2.287v-0.92l2.113-2.98h1.367v2.807h0.52v1.093h-0.52v0.82h-1.193zM27.807 11.642h0.933v-1.407l-0.933 1.407z"></path>
<path fill="#6384ee" style="fill: var(--color2, #6384ee)" d="M7.667 32c2.033 0 3.983-0.816 5.421-2.267s2.245-3.421 2.245-5.474-0.808-4.022-2.245-5.474c-1.438-1.452-3.388-2.267-5.421-2.267v3.7c1.062 0 2.080 0.426 2.83 1.184s1.172 1.786 1.172 2.858-0.422 2.1-1.172 2.858c-0.751 0.758-1.769 1.184-2.83 1.184v3.7z"></path>
</symbol>
<symbol id="desktop-oleg-icon-5" viewBox="0 0 66 32">
<path fill="#01013c" style="fill: var(--color1, #01013c)" d="M0 12.141h39.658c6.961 0 12.604 5.643 12.604 12.604 0 4.007-3.248 7.256-7.256 7.256h-45.006v-19.859z"></path>
<path fill="#6384ee" style="fill: var(--color2, #6384ee)" d="M5.226 0h24.121v24.121h-24.121v-24.121z"></path>
<path fill="#01013c" style="fill: var(--color1, #01013c)" d="M14.989 14.53c-0.391 0-0.721-0.068-0.991-0.203-0.265-0.135-0.48-0.323-0.644-0.564s-0.282-0.519-0.355-0.832c-0.072-0.314-0.109-0.646-0.109-0.999 0-0.367 0.039-0.709 0.116-1.028 0.077-0.323 0.2-0.605 0.369-0.847s0.388-0.429 0.659-0.564c0.27-0.14 0.596-0.21 0.977-0.21 0.386 0 0.712 0.070 0.977 0.21 0.27 0.135 0.487 0.326 0.651 0.572 0.169 0.241 0.289 0.521 0.362 0.839 0.077 0.314 0.116 0.649 0.116 1.006 0 0.362-0.039 0.702-0.116 1.020-0.077 0.314-0.2 0.591-0.369 0.832-0.164 0.241-0.381 0.429-0.651 0.564s-0.601 0.203-0.991 0.203zM14.989 13.322c0.198 0 0.352-0.051 0.463-0.152 0.116-0.101 0.198-0.227 0.246-0.376 0.053-0.154 0.087-0.311 0.101-0.47s0.022-0.297 0.022-0.412c0-0.111-0.007-0.244-0.022-0.398-0.010-0.159-0.039-0.314-0.087-0.463s-0.128-0.275-0.239-0.376c-0.106-0.101-0.258-0.152-0.456-0.152-0.193 0-0.347 0.051-0.463 0.152-0.111 0.096-0.193 0.22-0.246 0.369s-0.089 0.304-0.109 0.463c-0.014 0.154-0.022 0.289-0.022 0.405 0 0.111 0.005 0.246 0.014 0.405 0.014 0.159 0.046 0.316 0.094 0.47s0.128 0.282 0.239 0.384c0.111 0.101 0.265 0.152 0.463 0.152zM19.579 14.523c-0.256 0-0.492-0.034-0.709-0.101-0.212-0.068-0.403-0.171-0.572-0.311-0.164-0.145-0.299-0.326-0.405-0.543-0.106-0.222-0.176-0.482-0.21-0.781h1.274c0.014 0.068 0.046 0.142 0.094 0.224 0.053 0.082 0.128 0.152 0.224 0.21 0.101 0.053 0.229 0.080 0.384 0.080 0.15 0 0.265-0.029 0.347-0.087 0.087-0.058 0.15-0.13 0.188-0.217s0.058-0.176 0.058-0.268c0-0.169-0.055-0.311-0.166-0.427-0.111-0.121-0.282-0.181-0.514-0.181-0.13 0-0.253 0.022-0.369 0.065s-0.232 0.104-0.347 0.181h-1.035v-3.018h3.575v1.194h-2.33v0.659c0.159-0.096 0.333-0.157 0.521-0.181 0.193-0.029 0.357-0.039 0.492-0.029 0.333 0.014 0.61 0.092 0.832 0.232 0.222 0.135 0.388 0.323 0.499 0.564 0.111 0.236 0.166 0.514 0.166 0.832 0 0.415-0.089 0.765-0.268 1.049-0.174 0.285-0.412 0.499-0.716 0.644-0.299 0.14-0.637 0.21-1.013 0.21z"></path>
<path fill="#6384ee" style="fill: var(--color2, #6384ee)" d="M52.261 25.126c0 3.797-3.078 6.874-6.874 6.874s-6.874-3.078-6.874-6.874c0-3.797 3.078-6.874 6.874-6.874s6.874 3.078 6.874 6.874z"></path>
<path fill="#6384ee" style="fill: var(--color2, #6384ee)" d="M59.136 18.251c-1.823 0-3.572 0.724-4.861 2.013s-2.013 3.038-2.013 4.861 0.724 3.572 2.013 4.861c1.289 1.289 3.038 2.013 4.861 2.013v-3.285c-0.952 0-1.865-0.378-2.538-1.051s-1.051-1.586-1.051-2.538c0-0.952 0.378-1.865 1.051-2.538s1.586-1.051 2.538-1.051v-3.285z"></path>
</symbol>
<symbol id="desktop-oleg-icon-6" viewBox="0 0 35 32">
<path fill="#6384ee" style="fill: var(--color2, #6384ee)" d="M14.080 0h21.333v21.333h-21.333v-21.333z"></path>
<path fill="#01013c" style="fill: var(--color1, #01013c)" d="M22.786 13.065c-0.346 0-0.638-0.060-0.877-0.179-0.235-0.119-0.425-0.286-0.57-0.499s-0.25-0.459-0.314-0.736c-0.064-0.277-0.096-0.572-0.096-0.883 0-0.324 0.034-0.627 0.102-0.909 0.068-0.286 0.177-0.535 0.326-0.749s0.343-0.38 0.582-0.499c0.239-0.124 0.527-0.186 0.864-0.186 0.341 0 0.629 0.062 0.864 0.186 0.239 0.119 0.431 0.288 0.576 0.506 0.149 0.213 0.256 0.461 0.32 0.742 0.068 0.277 0.102 0.574 0.102 0.89 0 0.32-0.034 0.621-0.102 0.902-0.068 0.277-0.177 0.523-0.326 0.736-0.145 0.213-0.337 0.38-0.576 0.499s-0.531 0.179-0.877 0.179zM22.786 11.996c0.175 0 0.311-0.045 0.41-0.134 0.102-0.090 0.175-0.201 0.218-0.333 0.047-0.137 0.077-0.275 0.090-0.416s0.019-0.262 0.019-0.365c0-0.098-0.006-0.215-0.019-0.352-0.009-0.141-0.034-0.277-0.077-0.41s-0.113-0.243-0.211-0.333c-0.094-0.090-0.228-0.134-0.403-0.134-0.171 0-0.307 0.045-0.41 0.134-0.098 0.085-0.171 0.194-0.218 0.326s-0.079 0.269-0.096 0.41c-0.013 0.137-0.019 0.256-0.019 0.358 0 0.098 0.004 0.218 0.013 0.358 0.013 0.141 0.041 0.279 0.083 0.416s0.113 0.25 0.211 0.339c0.098 0.090 0.235 0.134 0.41 0.134zM26.98 13.065c-0.329 0-0.61-0.060-0.845-0.179-0.23-0.124-0.42-0.29-0.57-0.499-0.145-0.213-0.252-0.457-0.32-0.73s-0.102-0.559-0.102-0.858c0-0.316 0.038-0.614 0.115-0.896 0.077-0.286 0.194-0.54 0.352-0.762 0.162-0.222 0.365-0.397 0.608-0.525s0.531-0.192 0.864-0.192c0.282 0 0.535 0.051 0.762 0.154 0.23 0.098 0.418 0.25 0.563 0.454s0.23 0.469 0.256 0.794h-1.056c-0.034-0.102-0.1-0.186-0.198-0.25-0.098-0.068-0.224-0.102-0.378-0.102-0.119 0-0.226 0.021-0.32 0.064-0.090 0.038-0.169 0.092-0.237 0.16s-0.126 0.147-0.173 0.237c-0.043 0.090-0.075 0.183-0.096 0.282-0.021 0.094-0.032 0.19-0.032 0.288 0.107-0.141 0.228-0.245 0.365-0.314 0.137-0.073 0.267-0.119 0.39-0.141 0.128-0.026 0.23-0.038 0.307-0.038 0.307 0 0.567 0.060 0.781 0.179 0.213 0.115 0.375 0.282 0.486 0.499 0.115 0.213 0.173 0.471 0.173 0.774 0 0.329-0.073 0.612-0.218 0.851s-0.346 0.425-0.602 0.557c-0.252 0.128-0.544 0.192-0.877 0.192zM26.992 12.009c0.128-0.004 0.23-0.030 0.307-0.077 0.077-0.051 0.132-0.115 0.166-0.192 0.038-0.081 0.058-0.164 0.058-0.25 0-0.090-0.019-0.173-0.058-0.25s-0.096-0.139-0.173-0.186c-0.077-0.051-0.175-0.077-0.294-0.077s-0.224 0.026-0.314 0.077c-0.085 0.047-0.151 0.111-0.198 0.192-0.043 0.077-0.064 0.16-0.064 0.25 0 0.081 0.021 0.162 0.064 0.243 0.043 0.077 0.105 0.141 0.186 0.192 0.085 0.051 0.192 0.077 0.32 0.077z"></path>
<path fill="#6384ee" style="fill: var(--color2, #6384ee)" d="M14.862 24.64c0-1.952-0.783-3.824-2.177-5.204s-3.284-2.156-5.255-2.156-3.861 0.775-5.255 2.156c-1.394 1.38-2.177 3.252-2.177 5.204h3.552c0-1.019 0.409-1.996 1.136-2.717s1.714-1.125 2.743-1.125 2.016 0.405 2.743 1.125c0.728 0.721 1.136 1.698 1.136 2.717h3.552z"></path>
</symbol>
<symbol id="desktop-oleg-icon-7" viewBox="0 0 55 32">
<path fill="#01013c" style="fill: var(--color1, #01013c)" d="M0 10.088h32.167c6.217 0 11.257 5.040 11.257 11.257v4.175c0 3.579-2.901 6.48-6.48 6.48h-36.944v-21.912z"></path>
<path fill="#6384ee" style="fill: var(--color2, #6384ee)" d="M4.342 0h20.042v20.042h-20.042v-20.042z"></path>
<path fill="#01013c" style="fill: var(--color1, #01013c)" d="M12.455 12.073c-0.325 0-0.599-0.056-0.824-0.168-0.22-0.112-0.399-0.269-0.535-0.469s-0.235-0.431-0.295-0.691c-0.060-0.261-0.090-0.537-0.090-0.83 0-0.305 0.032-0.589 0.096-0.854 0.064-0.269 0.166-0.503 0.307-0.703s0.323-0.357 0.547-0.469c0.224-0.116 0.495-0.174 0.812-0.174 0.321 0 0.591 0.058 0.812 0.174 0.224 0.112 0.405 0.271 0.541 0.475 0.14 0.2 0.241 0.433 0.301 0.697 0.064 0.261 0.096 0.539 0.096 0.836 0 0.301-0.032 0.583-0.096 0.848-0.064 0.261-0.166 0.491-0.307 0.691-0.136 0.2-0.317 0.357-0.541 0.469s-0.499 0.168-0.824 0.168zM12.455 11.069c0.164 0 0.293-0.042 0.385-0.126 0.096-0.084 0.164-0.188 0.204-0.313 0.044-0.128 0.072-0.259 0.084-0.391s0.018-0.246 0.018-0.343c0-0.092-0.006-0.202-0.018-0.331-0.008-0.132-0.032-0.261-0.072-0.385s-0.106-0.228-0.198-0.313c-0.088-0.084-0.214-0.126-0.379-0.126-0.16 0-0.289 0.042-0.385 0.126-0.092 0.080-0.16 0.182-0.204 0.307s-0.074 0.253-0.090 0.385c-0.012 0.128-0.018 0.241-0.018 0.337 0 0.092 0.004 0.204 0.012 0.337 0.012 0.132 0.038 0.263 0.078 0.391s0.106 0.235 0.198 0.319c0.092 0.084 0.22 0.126 0.385 0.126zM14.717 12.025l1.563-3.247h-1.888v-1.010h3.133v0.776l-1.593 3.481h-1.215z"></path>
<path fill="#6384ee" style="fill: var(--color2, #6384ee)" d="M43.424 26.288c0 3.155-2.557 5.712-5.712 5.712s-5.712-2.557-5.712-5.712c0-3.155 2.557-5.712 5.712-5.712s5.712 2.557 5.712 5.712z"></path>
<path fill="#6384ee" style="fill: var(--color2, #6384ee)" d="M49.136 20.576c-1.515 0-2.968 0.602-4.039 1.673s-1.673 2.524-1.673 4.039 0.602 2.968 1.673 4.039c1.071 1.071 2.524 1.673 4.039 1.673v-2.73c-0.791 0-1.549-0.314-2.109-0.873s-0.873-1.318-0.873-2.109c0-0.791 0.314-1.549 0.873-2.109s1.318-0.873 2.109-0.873v-2.73z"></path>
</symbol>
</defs>
</svg>